<svg width="1440" height="1024" viewBox="0 0 1440 1024" fill="none" xmlns="http://www.w3.org/2000/svg">
<g clip-path="url(#clip0)">
<rect width="1440" height="1024" fill="white"/>
<g filter="url(#filter0_d)">
<path d="M100.507 910.782L210.441 953.001L99.6734 1017.14L0.509692 951.354L100.507 910.782Z" fill="#B5906F"/>
<path d="M94.952 913.036L97.7297 911.909L98.9344 914.878L98.3564 916.383L99.7644 916.924L99.9855 917.468L100.568 917.232L101.175 917.465L101.393 916.897L102.763 916.341L102.169 914.877L103.326 911.864L106.145 912.947L103.994 918.548L109.632 920.713L111.783 915.112L114.602 916.194L112.45 921.795L118.088 923.961L120.239 918.359L123.058 919.442L120.907 925.043L126.545 927.208L128.696 921.607L131.514 922.69L129.363 928.291L135.001 930.456L137.152 924.855L139.971 925.937L137.82 931.538L143.457 933.703L145.609 928.102L148.427 929.185L146.276 934.786L151.914 936.951L154.065 931.35L156.884 932.432L154.733 938.034L160.37 940.199L162.521 934.597L165.34 935.68L163.189 941.281L168.827 943.446L170.978 937.845L173.797 938.928L171.646 944.529L177.283 946.694L179.434 941.093L182.253 942.175L180.102 947.776L185.74 949.942L187.891 944.34L190.71 945.423L188.559 951.024L194.196 953.189L196.347 947.588L199.166 948.671L197.227 953.718L196.886 953.916L197.045 954.192L197.015 954.272L197.113 954.309L199.892 959.109L197.255 960.636L194.248 955.443L188.974 958.497L191.98 963.69L189.343 965.217L186.336 960.024L181.062 963.078L184.068 968.271L181.431 969.798L178.424 964.605L173.15 967.659L176.156 972.852L173.519 974.379L170.512 969.186L165.238 972.241L168.244 977.433L165.607 978.96L162.6 973.768L157.326 976.822L160.332 982.014L157.695 983.541L154.688 978.349L149.414 981.403L152.42 986.595L149.783 988.122L146.776 982.93L141.502 985.984L144.508 991.176L141.871 992.703L138.864 987.511L133.59 990.565L136.596 995.757L133.959 997.284L130.952 992.092L125.678 995.146L128.684 1000.34L126.047 1001.87L123.04 996.673L117.766 999.727L120.772 1004.92L118.135 1006.45L115.128 1001.25L109.854 1004.31L112.86 1009.5L110.223 1011.03L107.216 1005.83L101.942 1008.89L104.948 1014.08L102.311 1015.61L101.554 1014.3L102.99 1012.14L100.447 1010.45L99.8472 1011.35L99.3043 1010.42L96.667 1011.94L97.9669 1014.19L97.1308 1015.45L94.5881 1013.76L97.9048 1008.76L92.8195 1005.39L89.5028 1010.39L86.9601 1008.7L90.2768 1003.7L85.1915 1000.33L81.8748 1005.33L79.3321 1003.64L82.6489 998.642L77.5635 995.269L74.2468 1000.27L71.7042 998.582L75.0209 993.582L69.9356 990.208L66.6188 995.208L64.0762 993.522L67.3929 988.522L62.3076 985.148L58.9909 990.148L56.4482 988.462L59.7649 983.462L54.6796 980.088L51.3629 985.088L48.8202 983.402L52.137 978.402L47.0516 975.028L43.7349 980.028L41.1922 978.341L44.509 973.342L39.4237 969.968L36.1069 974.968L33.5643 973.281L36.881 968.281L31.7957 964.908L28.4789 969.908L25.9363 968.221L29.253 963.221L24.1677 959.848L20.851 964.848L18.3083 963.161L21.625 958.161L16.5397 954.788L13.223 959.788L10.6803 958.101L13.9971 953.101L13.301 952.64L13.8764 952.406L11.6206 946.846L14.3983 945.719L16.6541 951.279L22.2095 949.025L19.9537 943.465L22.7314 942.338L24.9872 947.898L30.5427 945.644L28.2868 940.084L31.0646 938.957L33.3204 944.517L38.8758 942.263L36.62 936.703L39.3977 935.576L41.6535 941.136L47.2089 938.882L44.9531 933.322L47.7308 932.195L49.9867 937.755L55.5421 935.501L53.2863 929.941L56.064 928.814L58.3198 934.374L63.8752 932.12L61.6194 926.56L64.3971 925.433L66.6529 930.993L72.2084 928.739L69.9526 923.179L72.7303 922.052L74.9861 927.612L80.5415 925.358L78.2857 919.798L81.0634 918.671L83.3192 924.231L88.8747 921.977L86.6188 916.417L89.3966 915.29L91.6524 920.85L97.2078 918.595L94.952 913.036ZM203.743 953.596L204.804 950.836L205.913 951.262L207.092 953.299L206.282 955.409L205.167 956.055L203.743 953.596ZM7.30344 952.152L5.59501 954.728L4.93604 954.291L3.90657 951.753L5.51965 949.322L6.06513 949.1L7.30344 952.152Z" stroke="#171616" stroke-width="12" stroke-dasharray="6 3"/>
</g>
<g filter="url(#filter1_i)">
<path d="M683.697 698L1440 769.546L683.697 882L0 769.546L683.697 698Z" fill="#FFCEAA" fill-opacity="0.709804"/>
</g>
<path d="M685.204 682.071L683.617 681.921L682.032 682.087L680.546 682.242L682.211 698.156L679.239 698.467L677.573 682.553L674.601 682.865L676.266 698.778L673.293 699.089L671.628 683.176L668.656 683.487L670.321 699.4L667.348 699.711L665.683 683.798L662.71 684.109L664.376 700.022L661.403 700.333L659.738 684.42L656.765 684.731L658.43 700.644L655.458 700.955L653.793 685.042L650.82 685.353L652.485 701.266L649.513 701.577L647.847 685.664L644.875 685.975L646.54 701.888L643.567 702.199L641.902 686.286L638.93 686.597L640.595 702.511L637.622 702.822L635.957 686.908L632.984 687.22L634.65 703.133L631.677 703.444L630.012 687.531L627.039 687.842L628.704 703.755L625.732 704.066L624.067 688.153L621.094 688.464L622.759 704.377L619.787 704.688L618.121 688.775L615.149 689.086L616.814 704.999L613.841 705.31L612.176 689.397L609.204 689.708L610.869 705.621L607.896 705.932L606.231 690.019L603.258 690.33L604.924 706.243L601.951 706.554L600.286 690.641L597.313 690.952L598.978 706.866L596.006 707.177L594.341 691.263L591.368 691.575L593.033 707.488L590.061 707.799L588.395 691.886L585.423 692.197L587.088 708.11L584.115 708.421L582.45 692.508L579.478 692.819L581.143 708.732L578.17 709.043L576.505 693.13L573.532 693.441L575.198 709.354L572.225 709.665L570.56 693.752L567.587 694.063L569.252 709.976L566.28 710.287L564.615 694.374L561.642 694.685L563.307 710.598L560.335 710.909L558.669 694.996L555.697 695.307L557.362 711.221L554.389 711.532L552.724 695.618L549.752 695.93L551.417 711.843L548.444 712.154L546.779 696.241L543.806 696.552L545.472 712.465L542.499 712.776L540.834 696.863L537.861 697.174L539.526 713.087L536.554 713.398L534.889 697.485L531.916 697.796L533.581 713.709L530.609 714.02L528.943 698.107L525.971 698.418L527.636 714.331L524.663 714.642L522.998 698.729L520.026 699.04L521.691 714.953L518.718 715.264L517.053 699.351L514.08 699.662L515.746 715.576L512.773 715.887L511.108 699.973L508.135 700.285L509.8 716.198L506.828 716.509L505.163 700.596L502.19 700.907L503.855 716.82L500.883 717.131L499.217 701.218L496.245 701.529L497.91 717.442L494.937 717.753L493.272 701.84L490.3 702.151L491.965 718.064L488.992 718.375L487.327 702.462L484.354 702.773L486.02 718.686L483.047 718.997L481.382 703.084L478.409 703.395L480.074 719.308L477.102 719.619L475.437 703.706L472.464 704.017L474.129 719.93L471.157 720.242L469.491 704.328L466.519 704.64L468.184 720.553L465.211 720.864L463.546 704.951L460.574 705.262L462.239 721.175L459.266 721.486L457.601 705.573L454.628 705.884L456.294 721.797L453.321 722.108L451.656 706.195L448.683 706.506L450.348 722.419L447.376 722.73L445.711 706.817L442.738 707.128L444.403 723.041L441.431 723.352L439.765 707.439L436.793 707.75L438.458 723.663L435.485 723.974L433.82 708.061L430.848 708.372L432.513 724.285L429.54 724.597L427.875 708.683L424.902 708.995L426.568 724.908L423.595 725.219L421.93 709.306L418.957 709.617L420.622 725.53L417.65 725.841L415.985 709.928L413.012 710.239L414.677 726.152L411.705 726.463L410.039 710.55L407.067 710.861L408.732 726.774L405.76 727.085L404.094 711.172L401.122 711.483L402.787 727.396L399.814 727.707L398.149 711.794L395.176 712.105L396.842 728.018L393.869 728.329L392.204 712.416L389.231 712.727L390.897 728.64L387.924 728.952L386.259 713.038L383.286 713.35L384.951 729.263L381.979 729.574L380.313 713.661L377.341 713.972L379.006 729.885L376.034 730.196L374.368 714.283L371.396 714.594L373.061 730.507L370.088 730.818L368.423 714.905L365.45 715.216L367.116 731.129L364.143 731.44L362.478 715.527L359.505 715.838L361.171 731.751L358.198 732.062L356.533 716.149L353.56 716.46L355.225 732.373L352.253 732.684L350.587 716.771L347.615 717.082L349.28 732.995L346.308 733.307L344.642 717.393L341.67 717.705L343.335 733.618L340.362 733.929L338.697 718.016L335.724 718.327L337.39 734.24L334.417 734.551L332.752 718.638L329.779 718.949L331.445 734.862L328.472 735.173L326.807 719.26L323.834 719.571L325.499 735.484L322.527 735.795L320.862 719.882L317.889 720.193L319.554 736.106L316.582 736.417L314.916 720.504L311.944 720.815L313.609 736.728L310.636 737.039L308.971 721.126L305.999 721.437L307.664 737.35L304.691 737.662L303.026 721.748L300.053 722.059L301.719 737.973L298.746 738.284L297.081 722.371L294.108 722.682L295.773 738.595L292.801 738.906L291.135 722.993L288.163 723.304L289.828 739.217L286.856 739.528L285.19 723.615L282.218 723.926L283.883 739.839L280.91 740.15L279.245 724.237L276.273 724.548L277.938 740.461L274.965 740.772L273.3 724.859L270.327 725.17L271.993 741.083L269.02 741.394L267.355 725.481L264.382 725.792L266.047 741.705L263.075 742.017L261.41 726.103L258.437 726.414L260.102 742.328L257.13 742.639L255.464 726.726L252.492 727.037L254.157 742.95L251.184 743.261L249.519 727.348L246.547 727.659L248.212 743.572L245.239 743.883L243.574 727.97L240.601 728.281L242.267 744.194L239.294 744.505L237.629 728.592L234.656 728.903L236.321 744.816L233.349 745.127L231.684 729.214L228.711 729.525L230.376 745.438L227.404 745.749L225.738 729.836L222.766 730.147L224.431 746.06L221.458 746.372L219.793 730.458L216.821 730.769L218.486 746.683L215.513 746.994L213.848 731.081L210.875 731.392L212.541 747.305L209.568 747.616L207.903 731.703L204.93 732.014L206.595 747.927L203.623 748.238L201.958 732.325L198.985 732.636L200.65 748.549L197.678 748.86L196.012 732.947L193.04 733.258L194.705 749.171L191.732 749.482L190.067 733.569L187.095 733.88L188.76 749.793L185.787 750.104L184.122 734.191L181.149 734.502L182.815 750.415L179.842 750.727L178.177 734.813L175.204 735.124L176.869 751.038L173.897 751.349L172.232 735.436L169.259 735.747L170.924 751.66L167.952 751.971L166.286 736.058L163.314 736.369L164.979 752.282L162.006 752.593L160.341 736.68L157.369 736.991L159.034 752.904L156.061 753.215L154.396 737.302L151.423 737.613L153.089 753.526L150.116 753.837L148.451 737.924L145.478 738.235L147.143 754.148L144.171 754.459L142.506 738.546L139.533 738.857L141.198 754.77L138.226 755.082L136.56 739.168L133.588 739.479L135.253 755.393L132.28 755.704L130.615 739.791L127.643 740.102L129.308 756.015L126.335 756.326L124.67 740.413L121.697 740.724L123.363 756.637L120.39 756.948L118.725 741.035L115.752 741.346L117.417 757.259L114.445 757.57L112.78 741.657L109.807 741.968L111.472 757.881L108.5 758.192L106.834 742.279L103.862 742.59L105.527 758.503L102.554 758.814L100.889 742.901L97.9166 743.212L99.5819 759.125L96.6092 759.437L94.944 743.523L91.9714 743.834L93.6367 759.748L90.664 760.059L88.9988 744.146L86.0262 744.457L87.6915 760.37L84.7188 760.681L83.0536 744.768L80.081 745.079L81.7463 760.992L78.7737 761.303L77.1084 745.39L74.1358 745.701L75.801 761.614L72.8285 761.925L71.1632 746.012L68.1906 746.323L69.8559 762.236L66.8833 762.547L65.218 746.634L62.2454 746.945L63.9106 762.858L60.9381 763.169L59.2728 747.256L56.3002 747.567L57.9654 763.48L57.47 763.532L57.5898 762.804L54.8422 762.352L53.3276 747.878L50.355 748.189L52.0203 764.103L51.257 764.182L51.6446 761.826L48.7266 761.346L47.3824 748.501L44.4098 748.812L45.6689 760.843L42.7268 760.359L42.6573 760.782L41.4372 749.123L38.4646 749.434L39.5533 759.837L36.7816 759.381L36.6098 760.426L35.492 749.745L32.5194 750.056L33.4377 758.831L30.8364 758.403L30.5622 760.07L29.5468 750.367L26.5742 750.678L27.3222 757.825L24.8913 757.425L24.5147 759.715L23.6017 750.989L20.629 751.3L21.2066 756.819L18.9461 756.448L18.4672 759.359L17.6564 751.611L14.6838 751.922L15.091 755.813L13.0009 755.47L12.4197 759.003L11.7112 752.233L8.73862 752.544L8.97545 754.808L7.05567 754.492L6.37215 758.647L5.76604 752.856L2.79342 753.167L2.85988 753.802L2.59677 753.758L0.918185 763.964L-0.179158 753.478L-1.66524 753.633L-2.59677 785.334L-1.11047 785.579L0.593565 775.218L1.66524 785.459L1.96736 785.428L1.86213 786.068L4.83472 786.556L5.72263 781.158L6.12391 784.993L8.18033 784.778L7.80732 787.045L10.7799 787.534L11.7702 781.514L12.0691 784.371L14.3933 784.127L13.7525 788.023L16.7251 788.512L17.8177 781.87L18.0143 783.749L20.6063 783.477L19.6977 789.001L22.6703 789.49L23.8652 782.225L23.9595 783.126L26.8192 782.827L25.6429 789.979L28.6155 790.468L29.9257 782.502L32.8773 782.193L32.1065 774.827L34.1849 775.169L31.5881 790.957L34.5607 791.446L36.1387 781.852L38.8225 781.571L38.222 775.833L40.1301 776.147L37.5333 791.935L40.5059 792.424L42.3517 781.202L44.7677 780.949L44.3376 776.839L46.0753 777.125L43.4785 792.913L46.4511 793.401L48.5646 780.552L50.7129 780.327L50.4532 777.845L52.0205 778.103L49.4237 793.89L52.3963 794.379L54.7776 779.901L56.6581 779.705L56.5687 778.851L57.9657 779.08L55.3689 794.868L58.3415 795.357L60.9383 779.569L63.9109 780.058L61.3141 795.846L64.2867 796.335L66.8835 780.547L69.856 781.036L67.2593 796.824L70.2319 797.313L72.8286 781.525L75.8012 782.014L73.2045 797.802L76.1771 798.291L78.7738 782.503L81.7464 782.992L79.1497 798.78L82.1222 799.269L84.719 783.481L87.6916 783.97L85.0948 799.758L88.0674 800.246L90.6642 784.459L93.6368 784.948L91.04 800.735L94.0126 801.224L96.6094 785.436L99.582 785.925L96.9852 801.713L99.9578 802.202L102.555 786.414L105.527 786.903L102.93 802.691L105.903 803.18L108.5 787.392L111.472 787.881L108.876 803.669L111.848 804.158L114.445 788.37L117.418 788.859L114.821 804.647L117.793 805.136L120.39 789.348L123.363 789.837L120.766 805.625L123.739 806.114L126.335 790.326L129.308 790.815L126.711 806.603L129.684 807.091L132.281 791.304L135.253 791.793L132.656 807.58L135.629 808.069L138.226 792.281L141.198 792.77L138.602 808.558L141.574 809.047L144.171 793.259L147.144 793.748L144.547 809.536L147.519 810.025L150.116 794.237L153.089 794.726L150.492 810.514L153.465 811.003L156.061 795.215L159.034 795.704L156.437 811.492L159.41 811.981L162.007 796.193L164.979 796.682L162.382 812.47L165.355 812.959L167.952 797.171L170.924 797.66L168.328 813.448L171.3 813.937L173.897 798.149L176.87 798.638L174.273 814.425L177.245 814.914L179.842 799.126L182.815 799.615L180.218 815.403L183.191 815.892L185.787 800.104L188.76 800.593L186.163 816.381L189.136 816.87L191.733 801.082L194.705 801.571L192.108 817.359L195.081 817.848L197.678 802.06L200.65 802.549L198.054 818.337L201.026 818.826L203.623 803.038L206.596 803.527L203.999 819.315L206.971 819.804L209.568 804.016L212.541 804.505L209.944 820.293L212.917 820.782L215.513 804.994L218.486 805.483L215.889 821.27L218.862 821.759L221.459 805.972L224.431 806.46L221.834 822.248L224.807 822.737L227.404 806.949L230.376 807.438L227.78 823.226L230.752 823.715L233.349 807.927L236.322 808.416L233.725 824.204L236.697 824.693L239.294 808.905L242.267 809.394L239.67 825.182L242.643 825.671L245.239 809.883L248.212 810.372L245.615 826.16L248.588 826.649L251.185 810.861L254.157 811.35L251.56 827.138L254.533 827.627L257.13 811.839L260.102 812.328L257.506 828.115L260.478 828.604L263.075 812.817L266.048 813.305L263.451 829.093L266.423 829.582L269.02 813.794L271.993 814.283L269.396 830.071L272.369 830.56L274.965 814.772L277.938 815.261L275.341 831.049L278.314 831.538L280.911 815.75L283.883 816.239L281.286 832.027L284.259 832.516L286.856 816.728L289.828 817.217L287.232 833.005L290.204 833.494L292.801 817.706L295.774 818.195L293.177 833.983L296.149 834.472L298.746 818.684L301.719 819.173L299.122 834.96L302.095 835.449L304.691 819.662L307.664 820.15L305.067 835.938L308.04 836.427L310.637 820.639L313.609 821.128L311.012 836.916L313.985 837.405L316.582 821.617L319.554 822.106L316.958 837.894L319.93 838.383L322.527 822.595L325.5 823.084L322.903 838.872L325.875 839.361L328.472 823.573L331.445 824.062L328.848 839.85L331.821 840.339L334.417 824.551L337.39 825.04L334.793 840.828L337.766 841.317L340.363 825.529L343.335 826.018L340.738 841.806L343.711 842.294L346.308 826.507L349.28 826.995L346.684 842.783L349.656 843.272L352.253 827.484L355.226 827.973L352.629 843.761L355.601 844.25L358.198 828.462L361.171 828.951L358.574 844.739L361.547 845.228L364.143 829.44L367.116 829.929L364.519 845.717L367.492 846.206L370.089 830.418L373.061 830.907L370.465 846.695L373.437 847.184L376.034 831.396L379.006 831.885L376.41 847.673L379.382 848.162L381.979 832.374L384.952 832.863L382.355 848.651L385.328 849.139L387.924 833.352L390.897 833.841L388.3 849.628L391.273 850.117L393.87 834.329L396.842 834.818L394.245 850.606L397.218 851.095L399.815 835.307L402.787 835.796L400.191 851.584L403.163 852.073L405.76 836.285L408.732 836.774L406.136 852.562L409.108 853.051L411.705 837.263L414.678 837.752L412.081 853.54L415.054 854.029L417.65 838.241L420.623 838.73L418.026 854.518L420.999 855.007L423.596 839.219L426.568 839.708L423.971 855.496L426.944 855.984L429.541 840.197L432.513 840.686L429.917 856.473L432.889 856.962L435.486 841.174L438.458 841.663L435.862 857.451L438.834 857.94L441.431 842.152L444.404 842.641L441.807 858.429L444.78 858.918L447.376 843.13L450.349 843.619L447.752 859.407L450.725 859.896L453.322 844.108L456.294 844.597L453.697 860.385L456.67 860.874L459.267 845.086L462.239 845.575L459.643 861.363L462.615 861.852L465.212 846.064L468.185 846.553L465.588 862.341L468.56 862.829L471.157 847.042L474.13 847.531L471.533 863.318L474.506 863.807L477.102 848.019L480.075 848.508L477.478 864.296L480.451 864.785L483.048 848.997L486.02 849.486L483.423 865.274L486.396 865.763L488.993 849.975L491.965 850.464L489.369 866.252L492.341 866.741L494.938 850.953L497.911 851.442L495.314 867.23L498.286 867.719L500.883 851.931L503.856 852.42L501.259 868.208L504.232 868.697L506.828 852.909L509.801 853.398L507.204 869.186L510.177 869.674L512.773 853.887L515.746 854.376L513.149 870.163L516.122 870.652L518.719 854.864L521.691 855.353L519.094 871.141L522.067 871.63L524.664 855.842L527.636 856.331L525.04 872.119L528.012 872.608L530.609 856.82L533.581 857.309L530.985 873.097L533.957 873.586L536.554 857.798L539.527 858.287L536.93 874.075L539.902 874.564L542.499 858.776L545.472 859.265L542.875 875.053L545.848 875.542L548.444 859.754L551.417 860.243L548.82 876.031L551.793 876.519L554.389 860.732L557.362 861.221L554.765 877.008L557.738 877.497L560.335 861.709L563.307 862.198L560.71 877.986L563.683 878.475L566.28 862.687L569.252 863.176L566.656 878.964L569.628 879.453L572.225 863.665L575.198 864.154L572.601 879.942L575.573 880.431L578.17 864.643L581.143 865.132L578.546 880.92L581.518 881.409L584.115 865.621L587.088 866.11L584.491 881.898L587.464 882.387L590.06 866.599L593.033 867.088L590.436 882.875L593.409 883.364L596.005 867.577L598.978 868.065L596.381 883.853L599.354 884.342L601.951 868.554L604.923 869.043L602.326 884.831L605.299 885.32L607.896 869.532L610.868 870.021L608.272 885.809L611.244 886.298L613.841 870.51L616.813 870.999L614.217 886.787L617.189 887.276L619.786 871.488L622.759 871.977L620.162 887.765L623.134 888.254L625.731 872.466L628.704 872.955L626.107 888.743L629.08 889.231L631.676 873.444L634.649 873.933L632.052 889.72L635.025 890.209L637.621 874.421L640.594 874.91L637.997 890.698L640.97 891.187L643.567 875.399L646.539 875.888L643.942 891.676L646.915 892.165L649.512 876.377L652.484 876.866L649.888 892.654L652.86 893.143L655.457 877.355L658.43 877.844L655.833 893.632L658.805 894.121L661.402 878.333L664.375 878.822L661.778 894.61L664.75 895.099L667.347 879.311L670.32 879.8L667.723 895.588L670.696 896.076L673.292 880.289L676.265 880.778L673.668 896.565L676.641 897.054L679.237 881.266L682.21 881.755L679.613 897.543L681.101 897.788L683.573 898.194L686.051 897.826L687.539 897.605L685.186 881.779L688.164 881.336L690.517 897.162L693.495 896.719L691.141 880.893L694.119 880.45L696.472 896.276L699.45 895.834L697.096 880.008L700.074 879.565L702.427 895.391L705.405 894.948L703.052 879.122L706.029 878.68L708.382 894.506L711.36 894.063L709.007 878.237L711.984 877.794L714.338 893.62L717.315 893.177L714.962 877.351L717.94 876.909L720.293 892.735L723.27 892.292L720.917 876.466L723.895 876.023L726.248 891.849L729.225 891.406L726.872 875.58L729.85 875.138L732.203 890.964L735.18 890.521L732.827 874.695L735.805 874.252L738.158 890.078L741.136 889.635L738.782 873.809L741.76 873.367L744.113 889.193L747.091 888.75L744.738 872.924L747.715 872.481L750.068 888.307L753.046 887.865L750.693 872.039L753.67 871.596L756.023 887.422L759.001 886.979L756.648 871.153L759.625 870.71L761.979 886.536L764.956 886.094L762.603 870.268L765.581 869.825L767.934 885.651L770.911 885.208L768.558 869.382L771.536 868.939L773.889 884.765L776.867 884.323L774.513 868.497L777.491 868.054L779.844 883.88L782.822 883.437L780.469 867.611L783.446 867.169L785.799 882.995L788.777 882.552L786.424 866.726L789.401 866.283L791.754 882.109L794.732 881.666L792.379 865.84L795.356 865.398L797.709 881.224L800.687 880.781L798.334 864.955L801.312 864.512L803.665 880.338L806.642 879.895L804.289 864.069L807.267 863.627L809.62 879.453L812.597 879.01L810.244 863.184L813.222 862.741L815.575 878.567L818.552 878.124L816.199 862.298L819.177 861.856L821.53 877.682L824.508 877.239L822.154 861.413L825.132 860.97L827.485 876.796L830.463 876.354L828.11 860.528L831.087 860.085L833.44 875.911L836.418 875.468L834.065 859.642L837.042 859.199L839.395 875.025L842.373 874.583L840.02 858.757L842.997 858.314L845.351 874.14L848.328 873.697L845.975 857.871L848.953 857.428L851.306 873.254L854.283 872.812L851.93 856.986L854.908 856.543L857.261 872.369L860.238 871.926L857.885 856.1L860.863 855.657L863.216 871.484L866.194 871.041L863.84 855.215L866.818 854.772L869.171 870.598L872.149 870.155L869.796 854.329L872.773 853.887L875.126 869.713L878.104 869.27L875.751 853.444L878.728 853.001L881.081 868.827L884.059 868.384L881.706 852.558L884.683 852.116L887.036 867.942L890.014 867.499L887.661 851.673L890.638 851.23L892.992 867.056L895.969 866.613L893.616 850.787L896.594 850.345L898.947 866.171L901.924 865.728L899.571 849.902L902.549 849.459L904.902 865.285L907.879 864.843L905.526 849.017L908.504 848.574L910.857 864.4L913.835 863.957L911.481 848.131L914.459 847.688L916.812 863.514L919.79 863.072L917.437 847.246L920.414 846.803L922.767 862.629L925.745 862.186L923.392 846.36L926.369 845.917L928.722 861.743L931.7 861.301L929.347 845.475L932.324 845.032L934.678 860.858L937.655 860.415L935.302 844.589L938.28 844.146L940.633 859.973L943.61 859.53L941.257 843.704L944.235 843.261L946.588 859.087L949.565 858.644L947.212 842.818L950.19 842.376L952.543 858.202L955.521 857.759L953.167 841.933L956.145 841.49L958.498 857.316L961.476 856.873L959.123 841.047L962.1 840.605L964.453 856.431L967.431 855.988L965.078 840.162L968.055 839.719L970.409 855.545L973.386 855.102L971.033 839.276L974.01 838.834L976.364 854.66L979.341 854.217L976.988 838.391L979.966 837.948L982.319 853.774L985.296 853.332L982.943 837.506L985.921 837.063L988.274 852.889L991.252 852.446L988.898 836.62L991.876 836.177L994.229 852.003L997.207 851.561L994.854 835.735L997.831 835.292L1000.18 851.118L1003.16 850.675L1000.81 834.849L1003.79 834.406L1006.14 850.232L1009.12 849.79L1006.76 833.964L1009.74 833.521L1012.09 849.347L1015.07 848.904L1012.72 833.078L1015.7 832.635L1018.05 848.461L1021.03 848.019L1018.67 832.193L1021.65 831.75L1024 847.576L1026.98 847.133L1024.63 831.307L1027.61 830.865L1029.96 846.691L1032.94 846.248L1030.58 830.422L1033.56 829.979L1035.92 845.805L1038.89 845.362L1036.54 829.536L1039.52 829.094L1041.87 844.92L1044.85 844.477L1042.49 828.651L1045.47 828.208L1047.83 844.034L1050.8 843.591L1048.45 827.765L1051.43 827.323L1053.78 843.149L1056.76 842.706L1054.41 826.88L1057.38 826.437L1059.74 842.263L1062.71 841.82L1060.36 825.994L1063.34 825.552L1065.69 841.378L1068.67 840.935L1066.32 825.109L1069.29 824.666L1071.65 840.492L1074.62 840.05L1072.27 824.224L1075.25 823.781L1077.6 839.607L1080.58 839.164L1078.23 823.338L1081.2 822.895L1083.56 838.721L1086.53 838.279L1084.18 822.453L1087.16 822.01L1089.51 837.836L1092.49 837.393L1090.14 821.567L1093.11 821.124L1095.47 836.95L1098.44 836.508L1096.09 820.682L1099.07 820.239L1101.42 836.065L1104.4 835.622L1102.05 819.796L1105.02 819.353L1107.38 835.179L1110.35 834.737L1108 818.911L1110.98 818.468L1113.33 834.294L1116.31 833.851L1113.96 818.025L1116.93 817.583L1119.29 833.409L1122.27 832.966L1119.91 817.14L1122.89 816.697L1125.24 832.523L1128.22 832.08L1125.87 816.254L1128.84 815.812L1131.2 831.638L1134.18 831.195L1131.82 815.369L1134.8 814.926L1137.15 830.752L1140.13 830.309L1137.78 814.483L1140.76 814.041L1143.11 829.867L1146.09 829.424L1143.73 813.598L1146.71 813.155L1149.06 828.981L1152.04 828.538L1149.69 812.712L1152.67 812.27L1155.02 828.096L1158 827.653L1155.64 811.827L1158.62 811.384L1160.97 827.21L1163.95 826.768L1161.6 810.942L1164.58 810.499L1166.93 826.325L1169.91 825.882L1167.55 810.056L1170.53 809.613L1172.88 825.439L1175.86 824.997L1173.51 809.171L1176.49 808.728L1178.84 824.554L1181.82 824.111L1179.46 808.285L1182.44 807.842L1184.79 823.668L1187.77 823.226L1185.42 807.4L1188.4 806.957L1190.75 822.783L1193.73 822.34L1191.37 806.514L1194.35 806.071L1196.7 821.897L1199.68 821.455L1197.33 805.629L1200.31 805.186L1202.66 821.012L1205.64 820.569L1203.28 804.743L1206.26 804.301L1208.61 820.127L1211.59 819.684L1209.24 803.858L1212.22 803.415L1214.57 819.241L1217.55 818.798L1215.19 802.972L1218.17 802.53L1220.53 818.356L1223.5 817.913L1221.15 802.087L1224.13 801.644L1226.48 817.47L1229.46 817.027L1227.1 801.201L1230.08 800.759L1232.44 816.585L1235.41 816.142L1233.06 800.316L1236.04 799.873L1238.39 815.699L1241.37 815.256L1239.02 799.43L1241.99 798.988L1244.35 814.814L1247.32 814.371L1244.97 798.545L1247.95 798.102L1250.3 813.928L1253.28 813.486L1250.93 797.66L1253.9 797.217L1256.26 813.043L1259.23 812.6L1256.88 796.774L1259.86 796.331L1262.21 812.157L1265.19 811.715L1262.84 795.889L1265.81 795.446L1268.17 811.272L1271.14 810.829L1268.79 795.003L1271.77 794.56L1274.12 810.386L1277.1 809.944L1274.75 794.118L1277.72 793.675L1280.08 809.501L1283.05 809.058L1280.7 793.232L1283.68 792.789L1286.03 808.616L1289.01 808.173L1286.66 792.347L1289.63 791.904L1291.99 807.73L1294.96 807.287L1292.61 791.461L1295.59 791.019L1297.94 806.845L1300.92 806.402L1298.57 790.576L1301.54 790.133L1303.9 805.959L1306.88 805.516L1304.52 789.69L1307.5 789.248L1309.85 805.074L1312.83 804.631L1310.48 788.805L1313.45 788.362L1315.81 804.188L1318.79 803.745L1316.43 787.919L1319.41 787.477L1321.76 803.303L1324.74 802.86L1322.39 787.034L1325.36 786.591L1327.72 802.417L1330.7 801.975L1328.34 786.148L1331.32 785.706L1333.67 801.532L1336.65 801.089L1334.3 785.263L1337.28 784.82L1339.63 800.646L1342.61 800.204L1340.25 784.378L1343.23 783.935L1345.58 799.761L1348.56 799.318L1346.21 783.492L1349.19 783.049L1351.54 798.875L1354.52 798.433L1352.16 782.607L1355.14 782.164L1357.49 797.99L1360.47 797.547L1358.12 781.721L1361.1 781.278L1363.45 797.104L1366.43 796.662L1364.07 780.836L1367.05 780.393L1369.4 796.219L1372.38 795.776L1370.03 779.95L1373.01 779.508L1375.36 795.334L1378.34 794.891L1375.98 779.065L1377.54 778.834L1377.45 779.701L1379.15 779.861L1381.31 794.448L1384.29 794.005L1381.94 778.179L1383.63 777.928L1383.41 780.264L1385.32 780.445L1387.27 793.563L1390.25 793.12L1387.89 777.294L1389.72 777.022L1389.36 780.827L1391.49 781.029L1393.22 792.677L1396.2 792.234L1393.85 776.408L1395.82 776.116L1395.32 781.391L1397.67 781.613L1399.18 791.792L1402.16 791.349L1399.8 775.523L1401.91 775.21L1401.27 781.954L1403.84 782.197L1405.14 790.906L1408.11 790.463L1405.76 774.637L1408.01 774.303L1407.23 782.518L1410.01 782.781L1411.09 790.021L1414.07 789.578L1411.71 773.752L1414.1 773.397L1413.18 783.081L1416.16 783.363L1416.17 783.256L1417.05 789.135L1420.02 788.693L1419.27 783.657L1422.12 783.926L1422.21 782.934L1423 788.25L1425.98 787.807L1425.45 784.241L1428.07 784.489L1428.25 782.612L1428.96 787.364L1431.93 786.922L1431.62 784.825L1434.03 785.053L1434.29 782.29L1434.91 786.479L1437.89 786.036L1437.8 785.409L1438.49 785.475L1439.41 775.794L1440.87 785.593L1442.35 785.372L1441.51 753.617L1440.02 753.477L1439.08 763.372L1437.65 753.72L1436.98 753.819L1437.04 753.195L1434.06 752.913L1433.64 757.432L1433.18 754.384L1430.89 754.725L1431.09 752.632L1428.11 752.35L1427.6 757.754L1427.23 755.27L1424.79 755.631L1425.13 752.068L1422.15 751.786L1421.56 758.076L1421.27 756.155L1418.7 756.538L1419.18 751.505L1416.2 751.223L1415.52 758.399L1415.32 757.041L1412.6 757.444L1413.22 750.941L1410.24 750.66L1409.48 758.721L1409.36 757.926L1406.51 758.35L1407.26 750.378L1404.29 750.096L1403.44 759.043L1403.41 758.811L1400.43 759.254L1401.42 765.896L1399.8 765.744L1401.31 749.815L1398.33 749.533L1397.37 759.709L1394.47 760.14L1395.24 765.312L1393.85 765.18L1395.35 749.251L1392.38 748.97L1391.28 760.615L1388.52 761.025L1389.07 764.728L1387.89 764.617L1389.4 748.688L1386.42 748.406L1385.18 761.521L1382.56 761.911L1382.9 764.144L1381.94 764.054L1383.44 748.125L1380.47 747.843L1379.09 762.427L1376.61 762.796L1376.72 763.56L1375.98 763.49L1377.49 747.561L1374.51 747.28L1373 763.209L1370.03 762.927L1371.53 746.998L1368.56 746.716L1367.05 762.645L1364.07 762.363L1365.58 746.435L1362.6 746.153L1361.09 762.082L1358.12 761.8L1359.62 745.871L1356.65 745.59L1355.14 761.518L1352.16 761.237L1353.67 745.308L1350.69 745.026L1349.18 760.955L1346.21 760.673L1347.71 744.745L1344.74 744.463L1343.23 760.392L1340.25 760.11L1341.76 744.181L1338.78 743.899L1337.27 759.828L1334.3 759.547L1335.8 743.618L1332.83 743.336L1331.32 759.265L1328.34 758.983L1329.85 743.054L1326.87 742.773L1325.36 758.702L1322.39 758.42L1323.89 742.491L1320.92 742.209L1319.41 758.138L1316.43 757.857L1317.94 741.928L1314.96 741.646L1313.45 757.575L1310.48 757.293L1311.98 741.364L1309.01 741.083L1307.5 757.012L1304.52 756.73L1306.03 740.801L1303.05 740.519L1301.54 756.448L1298.57 756.167L1300.07 740.238L1297.09 739.956L1295.59 755.885L1292.61 755.603L1294.12 739.674L1291.14 739.393L1289.63 755.322L1286.66 755.04L1288.16 739.111L1285.18 738.829L1283.68 754.758L1280.7 754.477L1282.21 738.548L1279.23 738.266L1277.72 754.195L1274.74 753.913L1276.25 737.984L1273.27 737.703L1271.77 753.631L1268.79 753.35L1270.3 737.421L1267.32 737.139L1265.81 753.068L1262.83 752.786L1264.34 736.858L1261.36 736.576L1259.86 752.505L1256.88 752.223L1258.39 736.294L1255.41 736.013L1253.9 751.941L1250.92 751.66L1252.43 735.731L1249.45 735.449L1247.95 751.378L1244.97 751.096L1246.48 735.167L1243.5 734.886L1241.99 750.815L1239.01 750.533L1240.52 734.604L1237.54 734.322L1236.04 750.251L1233.06 749.97L1234.57 734.041L1231.59 733.759L1230.08 749.688L1227.1 749.406L1228.61 733.477L1225.63 733.196L1224.13 749.125L1221.15 748.843L1222.66 732.914L1219.68 732.632L1218.17 748.561L1215.19 748.28L1216.7 732.351L1213.72 732.069L1212.22 747.998L1209.24 747.716L1210.75 731.787L1207.77 731.506L1206.26 747.435L1203.28 747.153L1204.79 731.224L1201.81 730.942L1200.31 746.871L1197.33 746.59L1198.84 730.661L1195.86 730.379L1194.35 746.308L1191.37 746.026L1192.88 730.097L1189.9 729.816L1188.4 745.744L1185.42 745.463L1186.92 729.534L1183.95 729.252L1182.44 745.181L1179.46 744.899L1180.97 728.971L1177.99 728.689L1176.49 744.618L1173.51 744.336L1175.01 728.407L1172.04 728.126L1170.53 744.054L1167.55 743.773L1169.06 727.844L1166.08 727.562L1164.57 743.491L1161.6 743.209L1163.1 727.28L1160.13 726.999L1158.62 742.928L1155.64 742.646L1157.15 726.717L1154.17 726.435L1152.66 742.364L1149.69 742.083L1151.19 726.154L1148.22 725.872L1146.71 741.801L1143.73 741.519L1145.24 725.59L1142.26 725.309L1140.75 741.238L1137.78 740.956L1139.28 725.027L1136.31 724.745L1134.8 740.674L1131.82 740.393L1133.33 724.464L1130.35 724.182L1128.84 740.111L1125.87 739.829L1127.37 723.9L1124.4 723.619L1122.89 739.548L1119.91 739.266L1121.42 723.337L1118.44 723.055L1116.93 738.984L1113.96 738.702L1115.46 722.774L1112.49 722.492L1110.98 738.421L1108 738.139L1109.51 722.21L1106.53 721.929L1105.02 737.857L1102.05 737.576L1103.55 721.647L1100.58 721.365L1099.07 737.294L1096.09 737.012L1097.6 721.084L1094.62 720.802L1093.11 736.731L1090.14 736.449L1091.64 720.52L1088.66 720.238L1087.16 736.167L1084.18 735.886L1085.69 719.957L1082.71 719.675L1081.2 735.604L1078.23 735.322L1079.73 719.393L1076.75 719.112L1075.25 735.041L1072.27 734.759L1073.78 718.83L1070.8 718.548L1069.29 734.477L1066.31 734.196L1067.82 718.267L1064.84 717.985L1063.34 733.914L1060.36 733.632L1061.87 717.703L1058.89 717.422L1057.38 733.351L1054.4 733.069L1055.91 717.14L1052.93 716.858L1051.43 732.787L1048.45 732.506L1049.96 716.577L1046.98 716.295L1045.47 732.224L1042.49 731.942L1044 716.013L1041.02 715.732L1039.52 731.661L1036.54 731.379L1038.05 715.45L1035.07 715.168L1033.56 731.097L1030.58 730.815L1032.09 714.887L1029.11 714.605L1027.61 730.534L1024.63 730.252L1026.14 714.323L1023.16 714.042L1021.65 729.97L1018.67 729.689L1020.18 713.76L1017.2 713.478L1015.7 729.407L1012.72 729.125L1014.23 713.197L1011.25 712.915L1009.74 728.844L1006.76 728.562L1008.27 712.633L1005.29 712.351L1003.79 728.28L1000.81 727.999L1002.31 712.07L999.337 711.788L997.83 727.717L994.853 727.435L996.36 711.506L993.382 711.225L991.875 727.154L988.898 726.872L990.405 710.943L987.427 710.661L985.92 726.59L982.942 726.309L984.449 710.38L981.472 710.098L979.965 726.027L976.987 725.745L978.494 709.816L975.517 709.535L974.01 725.464L971.032 725.182L972.539 709.253L969.561 708.971L968.055 724.9L965.077 724.619L966.584 708.69L963.606 708.408L962.099 724.337L959.122 724.055L960.629 708.126L957.651 707.845L956.144 723.773L953.167 723.492L954.674 707.563L951.696 707.281L950.189 723.21L947.211 722.928L948.718 707L945.741 706.718L944.234 722.647L941.256 722.365L942.763 706.436L939.786 706.155L938.279 722.083L935.301 721.802L936.808 705.873L933.83 705.591L932.324 721.52L929.346 721.238L930.853 705.309L927.875 705.028L926.368 720.957L923.391 720.675L924.898 704.746L921.92 704.464L920.413 720.393L917.436 720.112L918.943 704.183L915.965 703.901L914.458 719.83L911.481 719.548L912.988 703.619L910.01 703.338L908.503 719.267L905.526 718.985L907.032 703.056L904.055 702.774L902.548 718.703L899.571 718.422L901.077 702.493L898.1 702.211L896.593 718.14L893.615 717.858L895.122 701.929L892.145 701.648L890.638 717.577L887.66 717.295L889.167 701.366L886.19 701.084L884.683 717.013L881.705 716.732L883.212 700.803L880.234 700.521L878.728 716.45L875.75 716.168L877.257 700.239L874.279 699.958L872.773 715.887L869.795 715.605L871.302 699.676L868.324 699.394L866.817 715.323L863.84 715.041L865.347 699.113L862.369 698.831L860.862 714.76L857.885 714.478L859.392 698.549L856.414 698.268L854.907 714.196L851.93 713.915L853.437 697.986L850.459 697.704L848.952 713.633L845.975 713.351L847.482 697.423L844.504 697.141L842.997 713.07L840.019 712.788L841.526 696.859L838.549 696.578L837.042 712.506L834.064 712.225L835.571 696.296L832.594 696.014L831.087 711.943L828.109 711.661L829.616 695.732L826.639 695.451L825.132 711.38L822.154 711.098L823.661 695.169L820.684 694.887L819.177 710.816L816.199 710.535L817.706 694.606L814.728 694.324L813.222 710.253L810.244 709.971L811.751 694.042L808.773 693.761L807.266 709.69L804.289 709.408L805.796 693.479L802.818 693.197L801.311 709.126L798.334 708.845L799.841 692.916L796.863 692.634L795.356 708.563L792.379 708.281L793.886 692.352L790.908 692.071L789.401 708L786.424 707.718L787.93 691.789L784.953 691.507L783.446 707.436L780.469 707.155L781.975 691.226L778.998 690.944L777.491 706.873L774.513 706.591L776.02 690.662L773.043 690.381L771.536 706.31L768.558 706.028L770.065 690.099L767.088 689.817L765.581 705.746L762.603 705.464L764.11 689.536L761.133 689.254L759.626 705.183L756.648 704.901L758.155 688.972L755.177 688.691L753.671 704.619L750.693 704.338L752.2 688.409L749.222 688.127L747.715 704.056L744.738 703.774L746.245 687.846L743.267 687.564L741.76 703.493L738.783 703.211L740.29 687.282L737.312 687.001L735.805 702.929L732.828 702.648L734.335 686.719L731.357 686.437L729.85 702.366L726.873 702.084L728.379 686.155L725.402 685.874L723.895 701.803L720.917 701.521L722.424 685.592L719.447 685.31L717.94 701.239L714.962 700.958L716.469 685.029L713.492 684.747L711.985 700.676L709.007 700.394L710.514 684.465L707.537 684.184L706.03 700.113L703.052 699.831L704.559 683.902L701.581 683.62L700.075 699.549L697.097 699.268L698.604 683.339L695.626 683.057L694.12 698.986L691.142 698.704L692.649 682.775L689.671 682.494L688.164 698.423L685.187 698.141L686.694 682.212L685.204 682.071ZM45.6811 760.96L46.0751 764.725L45.044 764.833L45.6811 760.96ZM39.6335 760.604L40.1299 765.347L38.8311 765.483L39.6335 760.604ZM33.586 760.248L34.1847 765.969L32.6181 766.133L33.586 760.248ZM27.5385 759.892L28.2395 766.591L26.4051 766.783L27.5385 759.892ZM21.491 759.537L22.2943 767.213L20.1922 767.433L21.491 759.537ZM15.4434 759.181L16.3491 767.835L13.9792 768.083L15.4434 759.181ZM9.3959 758.825L10.4039 768.458L7.76621 768.734L9.3959 758.825ZM3.34837 758.47L4.45867 769.08L1.55324 769.384L3.34837 758.47ZM28.2397 774.191L25.9909 773.821L26.889 782.403L28.2397 774.191ZM22.2945 773.213L19.8754 772.815L20.8415 782.047L22.2945 773.213ZM16.3493 772.235L13.7598 771.809L14.7939 781.692L16.3493 772.235ZM10.4041 771.258L7.64424 770.804L8.74641 781.336L10.4041 771.258ZM4.4589 770.28L1.52867 769.798L2.69888 780.98L4.4589 770.28ZM1405.76 766.307L1407.59 766.48L1406.46 758.882L1405.76 766.307ZM1411.71 766.87L1413.76 767.064L1412.5 758.56L1411.71 766.87ZM1420.19 772.491L1417.67 772.867L1419.19 783.095L1420.19 772.491ZM1425.23 782.773L1423.63 771.981L1426.29 771.585L1425.23 782.773ZM1431.27 782.451L1429.58 771.096L1432.38 770.679L1431.27 782.451ZM1437.31 782.129L1435.54 770.21L1438.48 769.773L1437.31 782.129ZM1417.67 767.434L1419.94 767.648L1418.54 758.238L1417.67 767.434ZM1423.62 767.997L1426.11 768.232L1424.58 757.915L1423.62 767.997ZM1429.58 768.56L1432.28 768.816L1430.62 757.593L1429.58 768.56ZM1435.53 769.124L1438.46 769.4L1436.65 757.271L1435.53 769.124Z" stroke="#171616" stroke-width="32" stroke-dasharray="3 3"/>
<path d="M121.732 864.442C121.732 872.697 104.97 879.389 84.2936 879.389C63.6171 879.389 46.8555 872.697 46.8555 864.442C46.8555 856.186 63.6171 849.494 84.2936 849.494C104.97 849.494 121.732 856.186 121.732 864.442Z" fill="#C4C4C4" stroke="black" stroke-width="0.6"/>
<path fill-rule="evenodd" clip-rule="evenodd" d="M76.9554 846.215C79.0417 846.073 81.1842 846 83.3687 846C85.5532 846 87.6958 846.073 89.782 846.215L89.5605 856.697C87.5487 856.56 85.48 856.489 83.3687 856.489C81.2574 856.489 79.1887 856.56 77.1769 856.697L76.9554 846.215ZM63.4925 848.228C67.3846 847.28 71.7117 846.604 76.3142 846.26L76.5588 856.741C72.118 857.073 67.9745 857.722 64.2835 858.622L63.4925 848.228ZM90.4232 846.26C95.0257 846.604 99.3528 847.28 103.245 848.228L102.454 858.622C98.7629 857.722 94.6195 857.073 90.1786 856.741L90.4232 846.26ZM49.9586 853.774C53.2573 851.516 57.7091 849.698 62.8462 848.39L63.6721 858.774C58.7493 860.028 54.7771 861.706 52.0527 863.571L49.9586 853.774ZM103.891 848.39C109.028 849.698 113.48 851.516 116.779 853.774L114.685 863.571C111.96 861.706 107.988 860.028 103.065 858.774L103.891 848.39ZM45.1802 858.508C46.2841 856.791 47.7335 855.397 49.31 854.235L51.5425 863.934C50.3966 864.778 49.6387 865.562 49.1842 866.192C49.6387 866.822 50.3966 867.606 51.5425 868.451L49.31 878.15C47.7335 876.987 46.2841 875.594 45.1802 873.876C44.0916 872.182 43 869.614 43 866.192C43 862.77 44.0916 860.202 45.1802 858.508ZM48.7753 865.494C48.7757 865.494 48.7793 865.503 48.7849 865.522C48.7776 865.503 48.7748 865.494 48.7753 865.494ZM48.7849 866.863C48.7793 866.881 48.7757 866.89 48.7753 866.89C48.7748 866.89 48.7776 866.881 48.7849 866.863ZM121.557 858.508C122.646 860.202 123.737 862.77 123.737 866.192C123.737 869.614 122.646 872.182 121.557 873.876C120.453 875.594 119.004 876.987 117.427 878.15L115.195 868.451C116.341 867.606 117.099 866.822 117.553 866.192C117.099 865.562 116.341 864.778 115.195 863.934L117.427 854.235C119.004 855.397 120.453 856.791 121.557 858.508ZM117.962 866.89C117.962 866.89 117.958 866.881 117.953 866.863C117.96 866.881 117.963 866.89 117.962 866.89ZM117.953 865.522C117.958 865.503 117.962 865.494 117.962 865.494C117.963 865.494 117.96 865.503 117.953 865.522ZM62.8462 883.995C57.7091 882.686 53.2573 880.869 49.9586 878.61L52.0527 868.813C54.7771 870.678 58.7493 872.356 63.6721 873.61L62.8462 883.995ZM116.779 878.61C113.48 880.869 109.028 882.686 103.891 883.995L103.065 873.61C107.988 872.356 111.96 870.678 114.685 868.813L116.779 878.61ZM76.3142 886.124C71.7117 885.78 67.3846 885.105 63.4925 884.156L64.2835 873.763C67.9745 874.662 72.118 875.312 76.5588 875.644L76.3142 886.124ZM103.245 884.156C99.3528 885.105 95.0257 885.78 90.4232 886.124L90.1786 875.644C94.6195 875.312 98.763 874.662 102.454 873.763L103.245 884.156ZM83.3687 886.384C81.1842 886.384 79.0417 886.311 76.9554 886.17L77.1769 875.688C79.1887 875.824 81.2574 875.895 83.3687 875.895C85.48 875.895 87.5487 875.824 89.5605 875.688L89.782 886.17C87.6957 886.311 85.5532 886.384 83.3687 886.384Z" fill="black" stroke="black" stroke-width="0.006"/>
<path d="M110.795 943.55C110.795 948.232 100.202 954.214 85.568 954.214C70.9339 954.214 57.8008 948.232 57.8008 943.55C57.8008 938.867 69.664 932.623 84.2981 932.623C98.9321 932.623 110.795 938.867 110.795 943.55Z" stroke="black" stroke-width="0.6"/>
<path fill-rule="evenodd" clip-rule="evenodd" d="M57.7143 944.006L46.8357 863.754L46.8832 863.733L57.7617 943.985L57.7143 944.006Z" stroke="black" stroke-width="0.6"/>
<path fill-rule="evenodd" clip-rule="evenodd" d="M110.866 943.905L121.758 863.751L121.711 863.731L110.819 943.884L110.866 943.905Z" stroke="black" stroke-width="0.6"/>
<g filter="url(#filter2_d)">
<path d="M9.15107 774.314L17.8989 772.291L28.022 772.803L39.0139 779.053L51.1504 787.841L60.1701 798.939L68.1108 835.3L73.9387 866.849" stroke="#51743B" stroke-width="3" stroke-dasharray="24 4"/>
</g>
<g filter="url(#filter3_d)">
<path d="M9.48896 774.238L18.2368 772.215L28.3599 772.727L39.3518 778.977L51.4883 787.765L60.5079 798.863L68.4487 835.224L74.2766 866.772" stroke="#3A661F" stroke-width="3" stroke-dasharray="24 4"/>
</g>
<g filter="url(#filter4_d)">
<path d="M9.70072 772.383L20.5185 770.09L32.9518 770.39L46.2817 776.609L60.9432 785.43L71.7028 796.713L80.3798 834.169L86.6027 866.692" stroke="#51743B" stroke-width="3" stroke-dasharray="24 4"/>
</g>
<g filter="url(#filter5_d)">
<path d="M22.1645 760.983L29.7771 758.541L38.5196 758.984L47.8788 765.984L58.1681 775.877L65.7078 788.459L71.7215 829.99L76.0209 866.04" stroke="#51743B" stroke-width="3" stroke-dasharray="24 4"/>
</g>
<g filter="url(#filter6_d)">
<path d="M22.4393 758.29L31.8484 755.509L42.5937 755.676L53.9755 762.608L66.4477 772.502L75.4878 785.27L82.1125 828.046L86.7306 865.206" stroke="#51743B" stroke-width="3" stroke-dasharray="24 4"/>
</g>
<g filter="url(#filter7_d)">
<path d="M130.933 778.711L126.981 776.045L122.056 775.795L116.007 781.182L109.094 789.006L103.393 799.359L95.0948 834.897L88.4044 865.812" stroke="#51743B" stroke-width="3" stroke-dasharray="24 4"/>
</g>
<g filter="url(#filter8_d)">
<path d="M134.668 758.474L128.486 754.673L120.97 753.752L112.085 759.689L102.033 768.546L93.9829 780.692L83.5129 823.789L75.2102 861.344" stroke="#51743B" stroke-width="3" stroke-dasharray="24 4"/>
</g>
<g filter="url(#filter9_d)">
<path d="M14.9226 768.525L23.6703 766.502L33.7935 767.014L44.7854 773.264L56.9219 782.052L65.9415 793.15L73.8823 829.511L79.7102 861.06" stroke="#1C4006" stroke-width="3" stroke-dasharray="24 4"/>
</g>
<g filter="url(#filter10_d)">
<path d="M15.1781 766.176L30.497 757.06L48.1367 760.14L61.0174 766.749L73.5413 777.419L74.5383 787.816L83.6455 826.203L92.0801 860.485" stroke="#4F683F" stroke-width="3" stroke-dasharray="24 4"/>
</g>
<g filter="url(#filter11_d)">
<path d="M143.761 785.677L137.05 783.666L129.08 784.026L120.02 789.778L109.881 797.907L102.021 808.247L93.2028 842.389L86.3839 872.024" stroke="#466F2E" stroke-width="3" stroke-dasharray="24 4"/>
</g>
<g filter="url(#filter12_d)">
<path d="M149.491 788.401L155.76 778.268L143.586 770.052L114.15 774.098L98.9585 785.839L95.2587 799.894L92.0521 838.404L84.5247 871.117" stroke="#3D6028" stroke-width="3" stroke-dasharray="24 4"/>
</g>
<g filter="url(#filter13_d)">
<path d="M82.24 868.248L82.4008 835.853L89.329 769.713L85.631 758.578L73.2687 754.677L58.3588 759.766" stroke="#51743B" stroke-width="3" stroke-dasharray="24 4"/>
</g>
<g filter="url(#filter14_d)">
<path d="M100.727 867.782L103.536 793.786M103.536 793.786L99.664 750.328L111.198 742.132L124.154 751.568L128.291 769.011M103.536 793.786L97.3834 867.613M103.536 793.786L95.8549 760.171L81.6367 742.823" stroke="#51743B" stroke-width="3" stroke-dasharray="24 4"/>
</g>
<g filter="url(#filter15_d)">
<path d="M102.726 867.916L102.958 802.216M102.958 802.216L97.3711 763.496L109.03 756.493L122.802 765.194L127.722 780.799M102.958 802.216L99.2536 867.684M102.958 802.216L93.779 772.152L78.4125 756.387" stroke="#51743B" stroke-width="3" stroke-dasharray="24 4"/>
</g>
<g filter="url(#filter16_d)">
<path d="M100.753 867.595L103.561 793.599M103.561 793.599L99.6894 750.141L111.223 741.945L124.18 751.381L128.316 768.824M103.561 793.599L97.4088 867.425M103.561 793.599L95.8803 759.984L81.6621 742.635" stroke="#51743B" stroke-width="3" stroke-dasharray="24 4"/>
</g>
<g filter="url(#filter17_d)">
<path d="M91.5062 868.801L93.2419 794.406M93.2419 794.406L88.316 750.65L100.594 742.541L114.711 752.184L119.47 769.777M93.2419 794.406L87.9023 868.591M93.2419 794.406L84.3853 760.506L68.7716 742.89" stroke="#3A6420" stroke-width="3" stroke-dasharray="24 4"/>
</g>
<g filter="url(#filter18_d)">
<path d="M87.2092 868.65L84.668 794.825M84.668 794.825L88.3238 751.503L77.577 743.253L65.4849 752.581L61.609 769.952M84.668 794.825L90.3275 868.503M84.668 794.825L91.8656 761.346L105.143 744.134" stroke="#51743B" stroke-width="3" stroke-dasharray="24 4"/>
</g>
<g filter="url(#filter19_d)">
<path d="M77.7174 867.143L80.5257 793.148M80.5257 793.148L76.6543 749.689L88.188 741.494L101.145 750.929L105.281 768.372M80.5257 793.148L74.3737 866.974M80.5257 793.148L72.8452 759.533L58.6269 742.184" stroke="#51743B" stroke-width="3" stroke-dasharray="24 4"/>
</g>
<g filter="url(#filter20_b)">
<path d="M993.232 484.732L999.358 207.846C1000.85 140.64 944.853 83.6279 877.983 84.2596L849.13 84.5322C787.334 85.116 739.582 135.016 741.249 197.267L748.485 467.45C749.753 514.798 779.665 557.985 823.913 576.354L839.404 582.784C913.176 613.408 991.49 563.49 993.232 484.732Z" fill="#FFCEAA" fill-opacity="0.3"/>
<path d="M999.345 202.076C999.293 200.141 999.194 198.215 999.049 196.301L971.212 197.059C970.989 194.115 970.621 191.211 970.118 188.353L997.601 184.79C997.264 182.874 996.88 180.971 996.45 179.084L969.249 184.046C968.595 181.169 967.802 178.34 966.877 175.566L993.306 167.841C992.687 165.985 992.025 164.149 991.319 162.332L965.379 171.411C964.307 168.651 963.103 165.951 961.774 163.317L986.545 151.611C985.661 149.859 984.736 148.13 983.771 146.426L959.677 159.397C958.212 156.81 956.624 154.294 954.92 151.861L977.485 136.468C976.358 134.857 975.193 133.274 973.991 131.72L952.273 148.263C950.449 145.904 948.514 143.632 946.476 141.457L966.346 122.742C965.002 121.307 963.624 119.904 962.214 118.535L943.343 138.266C941.205 136.19 938.97 134.216 936.646 132.352L953.382 110.734C951.851 109.507 950.291 108.315 948.703 107.161L933.102 129.645C930.703 127.902 928.222 126.273 925.666 124.767L938.879 100.716C937.196 99.7238 935.488 98.7716 933.756 97.8606L921.794 122.609C919.192 121.239 916.521 119.994 913.789 118.882L923.153 92.9244C921.355 92.1919 919.537 91.5023 917.699 90.8571L909.675 117.322C906.928 116.357 904.124 115.524 901.27 114.829L906.556 87.5517C904.684 87.0961 902.796 86.6857 900.894 86.3217L896.997 113.901C894.161 113.358 891.277 112.951 888.351 112.689L889.463 84.7189C887.561 84.5482 885.647 84.4238 883.722 84.347L883.994 112.407C882.548 112.349 881.091 112.326 879.624 112.34L874.815 112.386L873.174 84.3051L868.365 84.3505L870.007 112.431L860.389 112.522L858.748 84.4413L853.939 84.4868L855.58 112.567L850.772 112.613C849.273 112.627 847.787 112.679 846.316 112.768L843.269 84.7369C841.309 84.8556 839.366 85.0242 837.439 85.2415L841.896 113.151C838.939 113.484 836.039 113.968 833.202 114.595L825.941 87.1521C824.04 87.5719 822.161 88.0402 820.302 88.5557L828.945 115.655C826.114 116.44 823.35 117.37 820.658 118.438L809.323 92.243C807.527 92.9554 805.756 93.7138 804.011 94.5168L816.648 120.155C813.997 121.375 811.425 122.732 808.941 124.217L793.813 99.8922C792.163 100.879 790.543 101.908 788.953 102.979L805.264 126.552C802.851 128.177 800.531 129.929 798.312 131.798L779.774 109.906C778.307 111.141 776.874 112.416 775.477 113.727L795.057 134.694C792.938 136.683 790.926 138.785 789.03 140.991L767.526 122.036C766.276 123.491 765.064 124.98 763.892 126.502L786.277 144.375C784.504 146.677 782.851 149.077 781.327 151.566L757.356 135.998C756.352 137.637 755.39 139.307 754.472 141.004L779.145 155.353C777.762 157.909 776.51 160.549 775.396 163.262L749.511 151.469C748.778 153.255 748.091 155.066 747.449 156.9L773.84 167.363C772.879 170.112 772.057 172.93 771.381 175.809L744.192 168.091C743.748 169.981 743.352 171.891 743.005 173.82L770.485 180.135C769.966 183.014 769.591 185.952 769.368 188.942L741.528 185.468C741.382 187.416 741.286 189.379 741.239 191.357L769.149 193.406C769.114 194.891 769.117 196.389 769.157 197.899L769.318 203.903L741.41 203.271L741.571 209.275L769.479 209.907L769.8 221.915L741.892 221.283L742.053 227.287L769.961 227.919L770.283 239.927L742.375 239.295L742.536 245.3L770.443 245.932L770.765 257.94L742.857 257.308L743.018 263.312L770.926 263.944L771.247 275.952L743.34 275.32L743.5 281.324L771.408 281.956L771.73 293.964L743.822 293.332L743.983 299.336L771.891 299.968L772.212 311.976L744.304 311.344L744.465 317.348L772.373 317.98L772.695 329.988L744.787 329.356L744.948 335.36L772.855 335.992L773.177 348.001L745.269 347.369L745.43 353.373L773.338 354.005L773.659 366.013L745.751 365.381L745.912 371.385L773.82 372.017L774.142 384.025L746.234 383.393L746.395 389.397L774.303 390.029L774.624 402.037L746.716 401.405L746.877 407.409L774.785 408.041L775.107 420.049L747.199 419.417L747.359 425.421L775.267 426.053L775.589 438.062L747.681 437.43L747.842 443.434L775.75 444.066L776.071 456.074L748.163 455.442L748.324 461.446L776.232 462.078L776.393 468.082C776.432 469.54 776.507 470.991 776.617 472.435L748.78 473.195C748.926 475.115 749.119 477.027 749.358 478.93L777.054 476.776C777.418 479.68 777.924 482.553 778.565 485.386L751.357 490.318C751.784 492.207 752.257 494.083 752.775 495.944L779.637 489.639C780.423 492.47 781.346 495.256 782.399 497.989L756.428 506.989C757.127 508.805 757.869 510.603 758.654 512.381L784.082 502.067C785.273 504.766 786.592 507.406 788.034 509.979L763.877 522.836C764.831 524.539 765.826 526.219 766.86 527.874L790.293 513.792C791.859 516.3 793.545 518.734 795.344 521.085L773.533 537.509C774.721 539.061 775.946 540.586 777.207 542.082L798.125 524.547C800.03 526.807 802.043 528.979 804.159 531.054L785.181 550.682C786.576 552.049 788.004 553.385 789.464 554.687L807.398 534.083C809.596 536.044 811.892 537.905 814.279 539.656L798.566 562.058C800.136 563.21 801.735 564.326 803.364 565.405L817.905 542.186C820.348 543.805 822.877 545.313 825.487 546.704L813.391 571.381C815.1 572.291 816.836 573.163 818.596 573.995L829.427 548.683C830.75 549.308 832.094 549.904 833.456 550.47L838.62 552.613L829.077 578.497L834.24 580.641L843.783 554.757L848.947 556.9C850.413 557.509 851.877 558.074 853.338 558.598L845.145 585.003C847.086 585.698 849.028 586.338 850.971 586.925L857.774 560.061C860.778 560.969 863.773 561.705 866.751 562.277L862.829 589.852C864.834 590.237 866.835 590.567 868.832 590.843L871.277 563.025C874.327 563.446 877.359 563.698 880.366 563.789L880.906 591.858C882.928 591.919 884.942 591.926 886.947 591.878L884.912 563.804C887.954 563.732 890.968 563.495 893.943 563.099L898.938 590.943C900.925 590.679 902.898 590.361 904.855 589.992L898.407 562.382C901.377 561.821 904.302 561.102 907.172 560.228L916.449 587.143C918.352 586.564 920.235 585.935 922.096 585.256L911.449 558.799C914.277 557.767 917.042 556.585 919.731 555.257L933.012 580.588C934.785 579.713 936.533 578.79 938.253 577.821L923.711 553.156C926.326 551.683 928.856 550.07 931.291 548.324L948.229 571.462C949.83 570.314 951.401 569.122 952.937 567.887L934.867 545.609C937.198 543.737 939.425 541.738 941.538 539.62L961.729 559.993C963.119 558.6 964.473 557.166 965.787 555.694L944.612 536.364C946.594 534.144 948.458 531.811 950.192 529.374L973.169 546.447C974.311 544.841 975.412 543.199 976.469 541.523L952.682 525.659C954.265 523.149 955.716 520.539 957.027 517.837L982.238 531.138C983.101 529.358 983.918 527.547 984.688 525.706L958.871 513.749C960.015 511.012 961.02 508.186 961.876 505.276L988.681 514.45C989.241 512.544 989.753 510.612 990.215 508.655L963.033 500.906C963.719 497.998 964.26 495.008 964.646 491.94L992.347 496.811C992.596 494.826 992.796 492.82 992.944 490.793L965.101 487.359C965.213 485.832 965.287 484.287 965.321 482.722L965.457 476.569L993.369 478.579L993.505 472.426L965.594 470.416L965.866 458.11L993.777 460.12L993.913 453.967L966.002 451.957L966.274 439.651L994.185 441.661L994.321 435.508L966.41 433.498L966.683 421.192L994.594 423.202L994.73 417.049L966.819 415.039L967.091 402.733L995.002 404.743L995.138 398.59L967.227 396.579L967.499 384.273L995.411 386.284L995.547 380.131L967.636 378.12L967.908 365.814L995.819 367.824L995.955 361.671L968.044 359.661L968.316 347.355L996.227 349.365L996.363 343.212L968.452 341.202L968.725 328.896L996.636 330.906L996.772 324.753L968.861 322.743L969.133 310.437L997.044 312.447L997.18 306.294L969.269 304.284L969.541 291.978L997.452 293.988L997.589 287.835L969.677 285.825L969.95 273.519L997.861 275.529L997.997 269.376L970.086 267.366L970.358 255.06L998.269 257.07L998.405 250.917L970.494 248.907L970.767 236.601L998.678 238.611L998.814 232.458L970.903 230.448L971.175 218.142L999.086 220.152L999.222 213.999L971.311 211.989L971.447 205.836C971.48 204.362 971.476 202.897 971.437 201.442L999.345 202.076Z" stroke="black" stroke-width="56" stroke-dasharray="12 6"/>
</g>
<g filter="url(#filter21_i)">
<g filter="url(#filter22_f)">
<path d="M438.241 746.866C428.142 754.381 417.995 741.781 417.995 741.781C424.411 753.8 408.353 757.56 421.362 760.757C421.18 763.751 401.113 778.118 426.801 777.314C446.895 776.685 445.047 768.222 439.075 753.424C441.522 748.15 439.075 753.424 438.241 746.866Z" fill="#FFCEAA" fill-opacity="0.709804"/>
</g>
<g filter="url(#filter23_f)">
<path d="M362.439 748.331C369.845 752.412 386.025 747.926 382.791 748.128C378.282 759.432 388.726 759.739 382.601 767.104C384.736 769.588 388.54 776.085 387.148 779.17C385.85 782.048 385.092 781.881 378.411 784.078C376.232 784.513 372.147 784.579 368.314 783.887C363.843 783.08 359.676 781.371 358.681 779.991C352.996 772.095 369.951 756.842 362.439 748.331Z" fill="#FFCEAA" fill-opacity="0.709804"/>
</g>
<g filter="url(#filter24_f)">
<path d="M442.917 766.904C445.375 777.399 422.959 781.432 413.475 772.923C413.684 776.673 409.243 793.097 417.931 795.259C448.412 798.237 446.779 778.996 442.917 766.904Z" fill="#14100E" fill-opacity="0.709804"/>
<path d="M442.917 766.904C445.375 777.399 422.959 781.432 413.475 772.923C413.684 776.673 409.243 793.097 417.931 795.259C448.412 798.237 446.779 778.996 442.917 766.904Z" stroke="black" stroke-width="0.999999"/>
</g>
<g filter="url(#filter25_f)">
<path d="M357.8 774.066C353.858 784.204 377.757 788.594 387.242 780.085C387.032 783.835 391.473 800.259 382.785 802.421C352.304 805.399 357.221 784.73 357.8 774.066Z" fill="#14100E" fill-opacity="0.709804"/>
<path d="M357.8 774.066C353.858 784.204 377.757 788.594 387.242 780.085C387.032 783.835 391.473 800.259 382.785 802.421C352.304 805.399 357.221 784.73 357.8 774.066Z" stroke="black" stroke-width="0.999999"/>
</g>
<g filter="url(#filter26_i)">
<path d="M383.233 436.87C375.042 447.724 372.013 470.314 370.712 501.035C368.236 559.532 372.029 647.509 358.398 740.075C355.929 756.84 391.497 748.306 390.447 744.21C391.164 580.353 406.608 509.575 412.929 505.702C428.439 496.2 426.83 593.001 412.961 736.78C425.312 751.319 434.24 753.492 442.787 741.957C442.787 741.957 466.776 487.44 440.419 432.586C407.276 447.203 407.978 444.097 383.233 436.87H383.233Z" fill="#C83737" fill-opacity="0.345098"/>
</g>
<g filter="url(#filter27_f)">
<path d="M388.911 251.846L393.815 266.653C393.815 266.653 395.324 270.883 398.903 269.348L392.453 292.318C377.511 322.47 400.313 343.016 400.313 343.016C412.805 321.126 405.177 308.794 405.177 308.794C410.532 290.856 410.754 287.895 410.754 287.895C406.053 285.813 406.267 284.25 406.267 284.25C412.359 283.949 416.292 270.964 414.222 273.326C411.91 275.965 408.016 274.228 405.255 272.96C396.728 269.044 388.911 251.846 388.911 251.846Z" fill="#FFCDAB" fill-opacity="0.462745"/>
</g>
<g filter="url(#filter28_f)">
<path d="M408.197 222.85L397.86 223.58C389.852 225.757 387.052 241.136 387.052 241.136C378.286 244.723 388.911 251.846 388.911 251.846C402.026 282.095 414.819 274.095 414.819 274.095L418.784 262.978C407.793 237.251 408.197 222.85 408.197 222.85Z" fill="url(#paint0_linear)"/>
</g>
<g filter="url(#filter29_f)">
<path d="M389.434 238.823C394.349 237.085 397.702 236.204 400.074 235.882C406.786 234.97 405.642 238.532 409.791 239.812C399.49 239.139 403.809 236.234 389.434 238.823Z" fill="black"/>
</g>
<g filter="url(#filter30_f)">
<path d="M409.777 261.72L406.213 261.231L403.735 260.048C403.735 260.048 402.31 256.424 402.892 264.064C408.654 266.363 406.609 265.422 406.609 265.422C406.609 265.422 411.891 267.715 413.588 265.169L415.261 261.616L409.777 261.72Z" fill="#F4D7D7"/>
</g>
<g filter="url(#filter31_f)">
<path d="M399.811 243.927C401.402 242.201 396.133 243.557 396.133 243.557C396.133 243.557 402.385 240.906 405.526 242.154C411.757 243.605 401.402 242.201 404.475 243.927C400.862 245.625 399.811 243.927 399.811 243.927Z" fill="url(#paint1_linear)"/>
</g>
<g filter="url(#filter32_f)">
<path d="M370.697 286.701C370.697 286.701 348.959 295.469 347 300.421C354.695 430.963 357.982 511.45 357.982 511.45C356.163 486.565 377.977 503.646 377.977 503.646C369.098 469.167 368.87 358.199 368.87 358.199C377.964 389.654 404.683 412.877 404.683 412.877C392.778 383.141 392.066 373.032 389.818 365.983C388.424 361.615 386.441 358.422 380.839 352.461C380.839 352.461 391.915 350.477 389.459 350.748C372.99 352.559 368.057 309.851 370.697 286.701Z" fill="#C83737" fill-opacity="0.360784"/>
</g>
<g filter="url(#filter33_f)">
<path d="M414.928 343.433C408.211 348.652 412.472 383.757 412.238 403.023L411.325 408.671C453.851 297.978 443.174 349.036 438.816 320.701C457.379 337.095 445.53 314.871 454.58 301.773L437.905 279.098C435.241 291.787 438.752 328.739 414.928 343.433Z" fill="url(#paint2_linear)"/>
</g>
<g filter="url(#filter34_f)">
<path d="M368.871 358.199C370.947 390.716 379.002 401.945 383.824 415.443C380.551 445.707 367.326 475.592 370.641 476.338C373.518 482.997 404.068 480.678 407.129 477.766L404.684 412.878C379.416 388.934 368.871 358.199 368.871 358.199Z" fill="url(#paint3_linear)"/>
<path d="M368.871 358.199C370.947 390.716 379.002 401.945 383.824 415.443C380.551 445.707 367.326 475.592 370.641 476.338C373.518 482.997 404.068 480.678 407.129 477.766L404.684 412.878C379.416 388.934 368.871 358.199 368.871 358.199Z" stroke="url(#paint4_linear)" stroke-opacity="0.97" stroke-width="0.999999"/>
</g>
<g filter="url(#filter35_i)">
<path d="M411.325 408.671L410.191 477.941C441.52 474.404 454.936 469.739 454.936 469.739C431.943 444.739 453.572 389.301 458.514 293.912C454.811 289.038 437.905 279.098 437.905 279.098L445.433 289.319L454.581 301.773C450.683 305.198 449.933 321.024 449.933 321.024C451.116 333.154 438.816 320.701 438.816 320.701C438.062 326.161 444.57 334.08 443.189 331.73C442.603 330.734 431.881 353.72 427.465 366.087L422.262 380.659C420.499 385.599 411.027 410.683 411.325 408.671L411.325 408.671Z" fill="#C83737" fill-opacity="0.372549"/>
</g>
<path d="M411.325 408.671L410.191 477.941C441.52 474.404 454.936 469.739 454.936 469.739C431.943 444.739 453.572 389.301 458.514 293.912C454.811 289.038 437.905 279.098 437.905 279.098L445.433 289.319L454.581 301.773C450.683 305.198 449.933 321.024 449.933 321.024C451.116 333.154 438.816 320.701 438.816 320.701C438.062 326.161 444.57 334.08 443.189 331.73C442.603 330.734 431.881 353.72 427.465 366.087L422.262 380.659C420.499 385.599 411.027 410.683 411.325 408.671L411.325 408.671Z" stroke="url(#paint5_linear)" stroke-opacity="0.97" stroke-width="0.999999"/>
<g filter="url(#filter36_f)">
<path d="M370.697 286.701L350.596 311.268C359.972 319.928 351.395 325.902 358.614 322.946L366.155 319.808C358.624 327.56 362.368 329.097 362.368 329.097C370.34 328.225 379.96 346.558 379.96 346.558L370.697 286.701Z" fill="url(#paint6_linear)"/>
</g>
<g filter="url(#filter37_f)">
<path d="M458.515 293.912C458.631 404.315 460.78 417.301 468.855 487.635C468.855 487.635 447.14 470.435 445.226 480.327C443.765 487.88 440.312 406.301 440.312 406.301C444.144 361.698 458.119 280.409 458.515 293.912Z" fill="#C83535" fill-opacity="0.360784"/>
<path d="M458.515 293.912C458.631 404.315 460.78 417.301 468.855 487.635C468.855 487.635 447.14 470.435 445.226 480.327C443.765 487.88 440.312 406.301 440.312 406.301C444.144 361.698 458.119 280.409 458.515 293.912Z" stroke="#EBB5B5" stroke-width="0.999999"/>
</g>
<g filter="url(#filter38_f)">
<path d="M404.683 412.877L404.114 369.181C402.899 347.927 403.577 343.923 396.008 336.61C376.065 320.864 387.829 350.672 388.688 350.759C385.337 350.03 371.788 350.673 381.657 353.799C381.657 353.799 388.978 360.709 392.737 379.354C396.144 396.255 404.683 412.877 404.683 412.877Z" fill="url(#paint7_linear)"/>
</g>
<g filter="url(#filter39_f)">
<path d="M400.825 347.654C404.148 347.654 410.95 345.61 418.907 340.693C403.548 351.646 415.666 392.721 412.176 407.138C408.475 422.423 412.705 425.541 410.614 438.683C409.972 442.713 411.156 442.731 411.156 442.731L404.677 443.376C405.694 439.586 404.281 415.519 404.486 410.985C405.864 380.486 398.416 345.54 400.825 347.654Z" fill="white" fill-opacity="0.372549"/>
</g>
<g filter="url(#filter40_f)">
<path d="M408.198 222.848C407.917 239.085 418.785 262.977 418.785 262.977C410.754 287.894 399.864 283.245 410.754 287.894L405.177 308.792C413.31 326.033 394.256 349.022 394.256 349.022C447.932 342.752 435.849 286.327 435.849 286.327C448.396 234.081 441.193 222.326 441.193 222.326C423.069 196.203 413.31 206.652 413.31 206.652C408.198 222.848 408.198 222.848 408.198 222.848Z" fill="url(#paint8_linear)"/>
</g>
<g filter="url(#filter41_f)">
<path d="M409.824 202.996C368.289 187.718 356.387 353.35 388.679 350.59C388.679 350.59 384.248 339.136 386.478 333.982C388.561 329.17 402.086 342.511 394.579 332.309C375.841 306.843 401.553 284.88 398.903 269.348C394.256 272.221 388.912 251.845 388.912 251.845C378.223 244.009 387.053 241.135 387.053 241.135C397.129 207.318 404.592 239.843 409.824 202.996Z" fill="url(#paint9_linear)"/>
</g>
<g filter="url(#filter42_f)">
<path d="M378.921 513.594C380.264 510.144 382.8 507.064 369.507 499.953C365.47 497.794 362.411 491.179 360.729 502.958C361.562 515.041 360.127 530.047 377.639 524.594C368.494 510.668 370.87 503.609 378.921 513.594Z" fill="#FFCDAB" fill-opacity="0.462745"/>
</g>
<g filter="url(#filter43_f)">
<path d="M445.183 483.621C446.273 479.445 446.443 474.561 458.337 479.829C461.949 481.429 467.422 478.289 461.959 490.039C454.816 499.882 447.429 514.238 439.907 494.344C453.056 490.07 455.508 481.848 445.183 483.621Z" fill="#FFCDAB" fill-opacity="0.462745"/>
</g>
</g>
</g>
<defs>
<filter id="filter0_d" x="-3.49023" y="910.781" width="217.932" height="114.354" filterUnits="userSpaceOnUse" color-interpolation-filters="sRGB">
<feFlood flood-opacity="0" result="BackgroundImageFix"/>
<feColorMatrix in="SourceAlpha" type="matrix" values="0 0 0 0 0 0 0 0 0 0 0 0 0 0 0 0 0 0 127 0" result="hardAlpha"/>
<feOffset dy="4"/>
<feGaussianBlur stdDeviation="2"/>
<feComposite in2="hardAlpha" operator="out"/>
<feColorMatrix type="matrix" values="0 0 0 0 0 0 0 0 0 0 0 0 0 0 0 0 0 0 0.25 0"/>
<feBlend mode="normal" in2="BackgroundImageFix" result="effect1_dropShadow"/>
<feBlend mode="normal" in="SourceGraphic" in2="effect1_dropShadow" result="shape"/>
</filter>
<filter id="filter1_i" x="-5.19336" y="665.842" width="1449.9" height="252.547" filterUnits="userSpaceOnUse" color-interpolation-filters="sRGB">
<feFlood flood-opacity="0" result="BackgroundImageFix"/>
<feBlend mode="normal" in="SourceGraphic" in2="BackgroundImageFix" result="shape"/>
<feColorMatrix in="SourceAlpha" type="matrix" values="0 0 0 0 0 0 0 0 0 0 0 0 0 0 0 0 0 0 127 0" result="hardAlpha"/>
<feOffset dy="4"/>
<feGaussianBlur stdDeviation="2"/>
<feComposite in2="hardAlpha" operator="arithmetic" k2="-1" k3="1"/>
<feColorMatrix type="matrix" values="0 0 0 0 0 0 0 0 0 0 0 0 0 0 0 0 0 0 0.25 0"/>
<feBlend mode="normal" in2="shape" result="effect1_innerShadow"/>
</filter>
<filter id="filter2_d" x="4.37109" y="769.287" width="76.5322" height="106" filterUnits="userSpaceOnUse" color-interpolation-filters="sRGB">
<feFlood flood-opacity="0" result="BackgroundImageFix"/>
<feColorMatrix in="SourceAlpha" type="matrix" values="0 0 0 0 0 0 0 0 0 0 0 0 0 0 0 0 0 0 127 0" result="hardAlpha"/>
<feOffset dy="4"/>
<feGaussianBlur stdDeviation="2"/>
<feComposite in2="hardAlpha" operator="out"/>
<feColorMatrix type="matrix" values="0 0 0 0 0 0 0 0 0 0 0 0 0 0 0 0 0 0 0.25 0"/>
<feBlend mode="normal" in2="BackgroundImageFix" result="effect1_dropShadow"/>
<feBlend mode="normal" in="SourceGraphic" in2="effect1_dropShadow" result="shape"/>
</filter>
<filter id="filter3_d" x="4.70898" y="769.211" width="76.5322" height="106" filterUnits="userSpaceOnUse" color-interpolation-filters="sRGB">
<feFlood flood-opacity="0" result="BackgroundImageFix"/>
<feColorMatrix in="SourceAlpha" type="matrix" values="0 0 0 0 0 0 0 0 0 0 0 0 0 0 0 0 0 0 127 0" result="hardAlpha"/>
<feOffset dy="4"/>
<feGaussianBlur stdDeviation="2"/>
<feComposite in2="hardAlpha" operator="out"/>
<feColorMatrix type="matrix" values="0 0 0 0 0 0 0 0 0 0 0 0 0 0 0 0 0 0 0.25 0"/>
<feBlend mode="normal" in2="BackgroundImageFix" result="effect1_dropShadow"/>
<feBlend mode="normal" in="SourceGraphic" in2="effect1_dropShadow" result="shape"/>
</filter>
<filter id="filter4_d" x="4.97363" y="767.096" width="88.5896" height="108.053" filterUnits="userSpaceOnUse" color-interpolation-filters="sRGB">
<feFlood flood-opacity="0" result="BackgroundImageFix"/>
<feColorMatrix in="SourceAlpha" type="matrix" values="0 0 0 0 0 0 0 0 0 0 0 0 0 0 0 0 0 0 127 0" result="hardAlpha"/>
<feOffset dy="4"/>
<feGaussianBlur stdDeviation="2"/>
<feComposite in2="hardAlpha" operator="out"/>
<feColorMatrix type="matrix" values="0 0 0 0 0 0 0 0 0 0 0 0 0 0 0 0 0 0 0.25 0"/>
<feBlend mode="normal" in2="BackgroundImageFix" result="effect1_dropShadow"/>
<feBlend mode="normal" in="SourceGraphic" in2="effect1_dropShadow" result="shape"/>
</filter>
<filter id="filter5_d" x="17.457" y="755.49" width="65.5144" height="119.123" filterUnits="userSpaceOnUse" color-interpolation-filters="sRGB">
<feFlood flood-opacity="0" result="BackgroundImageFix"/>
<feColorMatrix in="SourceAlpha" type="matrix" values="0 0 0 0 0 0 0 0 0 0 0 0 0 0 0 0 0 0 127 0" result="hardAlpha"/>
<feOffset dy="4"/>
<feGaussianBlur stdDeviation="2"/>
<feComposite in2="hardAlpha" operator="out"/>
<feColorMatrix type="matrix" values="0 0 0 0 0 0 0 0 0 0 0 0 0 0 0 0 0 0 0.25 0"/>
<feBlend mode="normal" in2="BackgroundImageFix" result="effect1_dropShadow"/>
<feBlend mode="normal" in="SourceGraphic" in2="effect1_dropShadow" result="shape"/>
</filter>
<filter id="filter6_d" x="17.7998" y="752.475" width="75.8792" height="121.318" filterUnits="userSpaceOnUse" color-interpolation-filters="sRGB">
<feFlood flood-opacity="0" result="BackgroundImageFix"/>
<feColorMatrix in="SourceAlpha" type="matrix" values="0 0 0 0 0 0 0 0 0 0 0 0 0 0 0 0 0 0 127 0" result="hardAlpha"/>
<feOffset dy="4"/>
<feGaussianBlur stdDeviation="2"/>
<feComposite in2="hardAlpha" operator="out"/>
<feColorMatrix type="matrix" values="0 0 0 0 0 0 0 0 0 0 0 0 0 0 0 0 0 0 0.25 0"/>
<feBlend mode="normal" in2="BackgroundImageFix" result="effect1_dropShadow"/>
<feBlend mode="normal" in="SourceGraphic" in2="effect1_dropShadow" result="shape"/>
</filter>
<filter id="filter7_d" x="81.6348" y="772.6" width="54.4796" height="102.388" filterUnits="userSpaceOnUse" color-interpolation-filters="sRGB">
<feFlood flood-opacity="0" result="BackgroundImageFix"/>
<feColorMatrix in="SourceAlpha" type="matrix" values="0 0 0 0 0 0 0 0 0 0 0 0 0 0 0 0 0 0 127 0" result="hardAlpha"/>
<feOffset dy="4"/>
<feGaussianBlur stdDeviation="2"/>
<feComposite in2="hardAlpha" operator="out"/>
<feColorMatrix type="matrix" values="0 0 0 0 0 0 0 0 0 0 0 0 0 0 0 0 0 0 0.25 0"/>
<feBlend mode="normal" in2="BackgroundImageFix" result="effect1_dropShadow"/>
<feBlend mode="normal" in="SourceGraphic" in2="effect1_dropShadow" result="shape"/>
</filter>
<filter id="filter8_d" x="68.4434" y="750.512" width="71.2857" height="120.021" filterUnits="userSpaceOnUse" color-interpolation-filters="sRGB">
<feFlood flood-opacity="0" result="BackgroundImageFix"/>
<feColorMatrix in="SourceAlpha" type="matrix" values="0 0 0 0 0 0 0 0 0 0 0 0 0 0 0 0 0 0 127 0" result="hardAlpha"/>
<feOffset dy="4"/>
<feGaussianBlur stdDeviation="2"/>
<feComposite in2="hardAlpha" operator="out"/>
<feColorMatrix type="matrix" values="0 0 0 0 0 0 0 0 0 0 0 0 0 0 0 0 0 0 0.25 0"/>
<feBlend mode="normal" in2="BackgroundImageFix" result="effect1_dropShadow"/>
<feBlend mode="normal" in="SourceGraphic" in2="effect1_dropShadow" result="shape"/>
</filter>
<filter id="filter9_d" x="10.1426" y="763.498" width="76.5322" height="106" filterUnits="userSpaceOnUse" color-interpolation-filters="sRGB">
<feFlood flood-opacity="0" result="BackgroundImageFix"/>
<feColorMatrix in="SourceAlpha" type="matrix" values="0 0 0 0 0 0 0 0 0 0 0 0 0 0 0 0 0 0 127 0" result="hardAlpha"/>
<feOffset dy="4"/>
<feGaussianBlur stdDeviation="2"/>
<feComposite in2="hardAlpha" operator="out"/>
<feColorMatrix type="matrix" values="0 0 0 0 0 0 0 0 0 0 0 0 0 0 0 0 0 0 0.25 0"/>
<feBlend mode="normal" in2="BackgroundImageFix" result="effect1_dropShadow"/>
<feBlend mode="normal" in="SourceGraphic" in2="effect1_dropShadow" result="shape"/>
</filter>
<filter id="filter10_d" x="9.56152" y="753.928" width="89.4455" height="115.169" filterUnits="userSpaceOnUse" color-interpolation-filters="sRGB">
<feFlood flood-opacity="0" result="BackgroundImageFix"/>
<feColorMatrix in="SourceAlpha" type="matrix" values="0 0 0 0 0 0 0 0 0 0 0 0 0 0 0 0 0 0 127 0" result="hardAlpha"/>
<feOffset dy="4"/>
<feGaussianBlur stdDeviation="2"/>
<feComposite in2="hardAlpha" operator="out"/>
<feColorMatrix type="matrix" values="0 0 0 0 0 0 0 0 0 0 0 0 0 0 0 0 0 0 0.25 0"/>
<feBlend mode="normal" in2="BackgroundImageFix" result="effect1_dropShadow"/>
<feBlend mode="normal" in="SourceGraphic" in2="effect1_dropShadow" result="shape"/>
</filter>
<filter id="filter11_d" x="79.4355" y="780.67" width="69.3168" height="99.8933" filterUnits="userSpaceOnUse" color-interpolation-filters="sRGB">
<feFlood flood-opacity="0" result="BackgroundImageFix"/>
<feColorMatrix in="SourceAlpha" type="matrix" values="0 0 0 0 0 0 0 0 0 0 0 0 0 0 0 0 0 0 127 0" result="hardAlpha"/>
<feOffset dy="4"/>
<feGaussianBlur stdDeviation="2"/>
<feComposite in2="hardAlpha" operator="out"/>
<feColorMatrix type="matrix" values="0 0 0 0 0 0 0 0 0 0 0 0 0 0 0 0 0 0 0.25 0"/>
<feBlend mode="normal" in2="BackgroundImageFix" result="effect1_dropShadow"/>
<feBlend mode="normal" in="SourceGraphic" in2="effect1_dropShadow" result="shape"/>
</filter>
<filter id="filter12_d" x="77.5762" y="766.947" width="86.2378" height="112.709" filterUnits="userSpaceOnUse" color-interpolation-filters="sRGB">
<feFlood flood-opacity="0" result="BackgroundImageFix"/>
<feColorMatrix in="SourceAlpha" type="matrix" values="0 0 0 0 0 0 0 0 0 0 0 0 0 0 0 0 0 0 127 0" result="hardAlpha"/>
<feOffset dy="4"/>
<feGaussianBlur stdDeviation="2"/>
<feComposite in2="hardAlpha" operator="out"/>
<feColorMatrix type="matrix" values="0 0 0 0 0 0 0 0 0 0 0 0 0 0 0 0 0 0 0.25 0"/>
<feBlend mode="normal" in2="BackgroundImageFix" result="effect1_dropShadow"/>
<feBlend mode="normal" in="SourceGraphic" in2="effect1_dropShadow" result="shape"/>
</filter>
<filter id="filter13_d" x="53.3545" y="751.521" width="43.0284" height="124.78" filterUnits="userSpaceOnUse" color-interpolation-filters="sRGB">
<feFlood flood-opacity="0" result="BackgroundImageFix"/>
<feColorMatrix in="SourceAlpha" type="matrix" values="0 0 0 0 0 0 0 0 0 0 0 0 0 0 0 0 0 0 127 0" result="hardAlpha"/>
<feOffset dy="4"/>
<feGaussianBlur stdDeviation="2"/>
<feComposite in2="hardAlpha" operator="out"/>
<feColorMatrix type="matrix" values="0 0 0 0 0 0 0 0 0 0 0 0 0 0 0 0 0 0 0.25 0"/>
<feBlend mode="normal" in2="BackgroundImageFix" result="effect1_dropShadow"/>
<feBlend mode="normal" in="SourceGraphic" in2="effect1_dropShadow" result="shape"/>
</filter>
<filter id="filter14_d" x="75.207" y="738.455" width="60.0506" height="137.421" filterUnits="userSpaceOnUse" color-interpolation-filters="sRGB">
<feFlood flood-opacity="0" result="BackgroundImageFix"/>
<feColorMatrix in="SourceAlpha" type="matrix" values="0 0 0 0 0 0 0 0 0 0 0 0 0 0 0 0 0 0 127 0" result="hardAlpha"/>
<feOffset dy="4"/>
<feGaussianBlur stdDeviation="2"/>
<feComposite in2="hardAlpha" operator="out"/>
<feColorMatrix type="matrix" values="0 0 0 0 0 0 0 0 0 0 0 0 0 0 0 0 0 0 0.25 0"/>
<feBlend mode="normal" in2="BackgroundImageFix" result="effect1_dropShadow"/>
<feBlend mode="normal" in="SourceGraphic" in2="effect1_dropShadow" result="shape"/>
</filter>
<filter id="filter15_d" x="72.1367" y="752.994" width="62.4987" height="123.116" filterUnits="userSpaceOnUse" color-interpolation-filters="sRGB">
<feFlood flood-opacity="0" result="BackgroundImageFix"/>
<feColorMatrix in="SourceAlpha" type="matrix" values="0 0 0 0 0 0 0 0 0 0 0 0 0 0 0 0 0 0 127 0" result="hardAlpha"/>
<feOffset dy="4"/>
<feGaussianBlur stdDeviation="2"/>
<feComposite in2="hardAlpha" operator="out"/>
<feColorMatrix type="matrix" values="0 0 0 0 0 0 0 0 0 0 0 0 0 0 0 0 0 0 0.25 0"/>
<feBlend mode="normal" in2="BackgroundImageFix" result="effect1_dropShadow"/>
<feBlend mode="normal" in="SourceGraphic" in2="effect1_dropShadow" result="shape"/>
</filter>
<filter id="filter16_d" x="75.2324" y="738.268" width="60.0506" height="137.421" filterUnits="userSpaceOnUse" color-interpolation-filters="sRGB">
<feFlood flood-opacity="0" result="BackgroundImageFix"/>
<feColorMatrix in="SourceAlpha" type="matrix" values="0 0 0 0 0 0 0 0 0 0 0 0 0 0 0 0 0 0 127 0" result="hardAlpha"/>
<feOffset dy="4"/>
<feGaussianBlur stdDeviation="2"/>
<feComposite in2="hardAlpha" operator="out"/>
<feColorMatrix type="matrix" values="0 0 0 0 0 0 0 0 0 0 0 0 0 0 0 0 0 0 0.25 0"/>
<feBlend mode="normal" in2="BackgroundImageFix" result="effect1_dropShadow"/>
<feBlend mode="normal" in="SourceGraphic" in2="effect1_dropShadow" result="shape"/>
</filter>
<filter id="filter17_d" x="62.4102" y="738.949" width="64.0059" height="137.988" filterUnits="userSpaceOnUse" color-interpolation-filters="sRGB">
<feFlood flood-opacity="0" result="BackgroundImageFix"/>
<feColorMatrix in="SourceAlpha" type="matrix" values="0 0 0 0 0 0 0 0 0 0 0 0 0 0 0 0 0 0 127 0" result="hardAlpha"/>
<feOffset dy="4"/>
<feGaussianBlur stdDeviation="2"/>
<feComposite in2="hardAlpha" operator="out"/>
<feColorMatrix type="matrix" values="0 0 0 0 0 0 0 0 0 0 0 0 0 0 0 0 0 0 0.25 0"/>
<feBlend mode="normal" in2="BackgroundImageFix" result="effect1_dropShadow"/>
<feBlend mode="normal" in="SourceGraphic" in2="effect1_dropShadow" result="shape"/>
</filter>
<filter id="filter18_d" x="54.6475" y="739.479" width="56.9456" height="137.222" filterUnits="userSpaceOnUse" color-interpolation-filters="sRGB">
<feFlood flood-opacity="0" result="BackgroundImageFix"/>
<feColorMatrix in="SourceAlpha" type="matrix" values="0 0 0 0 0 0 0 0 0 0 0 0 0 0 0 0 0 0 127 0" result="hardAlpha"/>
<feOffset dy="4"/>
<feGaussianBlur stdDeviation="2"/>
<feComposite in2="hardAlpha" operator="out"/>
<feColorMatrix type="matrix" values="0 0 0 0 0 0 0 0 0 0 0 0 0 0 0 0 0 0 0.25 0"/>
<feBlend mode="normal" in2="BackgroundImageFix" result="effect1_dropShadow"/>
<feBlend mode="normal" in="SourceGraphic" in2="effect1_dropShadow" result="shape"/>
</filter>
<filter id="filter19_d" x="52.1973" y="737.816" width="60.0506" height="137.421" filterUnits="userSpaceOnUse" color-interpolation-filters="sRGB">
<feFlood flood-opacity="0" result="BackgroundImageFix"/>
<feColorMatrix in="SourceAlpha" type="matrix" values="0 0 0 0 0 0 0 0 0 0 0 0 0 0 0 0 0 0 127 0" result="hardAlpha"/>
<feOffset dy="4"/>
<feGaussianBlur stdDeviation="2"/>
<feComposite in2="hardAlpha" operator="out"/>
<feColorMatrix type="matrix" values="0 0 0 0 0 0 0 0 0 0 0 0 0 0 0 0 0 0 0.25 0"/>
<feBlend mode="normal" in2="BackgroundImageFix" result="effect1_dropShadow"/>
<feBlend mode="normal" in="SourceGraphic" in2="effect1_dropShadow" result="shape"/>
</filter>
<filter id="filter20_b" x="737.207" y="80.2539" width="266.18" height="515.655" filterUnits="userSpaceOnUse" color-interpolation-filters="sRGB">
<feFlood flood-opacity="0" result="BackgroundImageFix"/>
<feGaussianBlur in="BackgroundImage" stdDeviation="2"/>
<feComposite in2="SourceAlpha" operator="in" result="effect1_backgroundBlur"/>
<feBlend mode="normal" in="SourceGraphic" in2="effect1_backgroundBlur" result="shape"/>
</filter>
<filter id="filter21_i" x="347" y="202" width="122.49" height="601.211" filterUnits="userSpaceOnUse" color-interpolation-filters="sRGB">
<feFlood flood-opacity="0" result="BackgroundImageFix"/>
<feBlend mode="normal" in="SourceGraphic" in2="BackgroundImageFix" result="shape"/>
<feColorMatrix in="SourceAlpha" type="matrix" values="0 0 0 0 0 0 0 0 0 0 0 0 0 0 0 0 0 0 127 0" result="hardAlpha"/>
<feOffset/>
<feGaussianBlur stdDeviation="0.00301126"/>
<feComposite in2="hardAlpha" operator="arithmetic" k2="-1" k3="1"/>
<feColorMatrix type="matrix" values="0 0 0 0 0 0 0 0 0 0 0 0 0 0 0 0 0 0 1 0"/>
<feBlend mode="normal" in2="shape" result="effect1_innerShadow"/>
</filter>
<filter id="filter22_f" x="413.724" y="741.775" width="29.4054" height="35.5775" filterUnits="userSpaceOnUse" color-interpolation-filters="sRGB">
<feFlood flood-opacity="0" result="BackgroundImageFix"/>
<feBlend mode="normal" in="SourceGraphic" in2="BackgroundImageFix" result="shape"/>
<feGaussianBlur stdDeviation="0.00301126" result="effect1_foregroundBlur"/>
</filter>
<filter id="filter23_f" x="357.486" y="748.115" width="29.9669" height="36.2973" filterUnits="userSpaceOnUse" color-interpolation-filters="sRGB">
<feFlood flood-opacity="0" result="BackgroundImageFix"/>
<feBlend mode="normal" in="SourceGraphic" in2="BackgroundImageFix" result="shape"/>
<feGaussianBlur stdDeviation="0.00301126" result="effect1_foregroundBlur"/>
</filter>
<filter id="filter24_f" x="412.017" y="766.746" width="33.4743" height="29.3271" filterUnits="userSpaceOnUse" color-interpolation-filters="sRGB">
<feFlood flood-opacity="0" result="BackgroundImageFix"/>
<feBlend mode="normal" in="SourceGraphic" in2="BackgroundImageFix" result="shape"/>
<feGaussianBlur stdDeviation="0.00301126" result="effect1_foregroundBlur"/>
</filter>
<filter id="filter25_f" x="356.658" y="773.879" width="32.0407" height="29.338" filterUnits="userSpaceOnUse" color-interpolation-filters="sRGB">
<feFlood flood-opacity="0" result="BackgroundImageFix"/>
<feBlend mode="normal" in="SourceGraphic" in2="BackgroundImageFix" result="shape"/>
<feGaussianBlur stdDeviation="0.00301126" result="effect1_foregroundBlur"/>
</filter>
<filter id="filter26_i" x="358.275" y="432.586" width="94.5049" height="317.463" filterUnits="userSpaceOnUse" color-interpolation-filters="sRGB">
<feFlood flood-opacity="0" result="BackgroundImageFix"/>
<feBlend mode="normal" in="SourceGraphic" in2="BackgroundImageFix" result="shape"/>
<feColorMatrix in="SourceAlpha" type="matrix" values="0 0 0 0 0 0 0 0 0 0 0 0 0 0 0 0 0 0 127 0" result="hardAlpha"/>
<feOffset/>
<feGaussianBlur stdDeviation="0.00301126"/>
<feComposite in2="hardAlpha" operator="arithmetic" k2="-1" k3="1"/>
<feColorMatrix type="matrix" values="0 0 0 0 0 0 0 0 0 0 0 0 0 0 0 0 0 0 1 0"/>
<feBlend mode="normal" in2="shape" result="effect1_innerShadow"/>
</filter>
<filter id="filter27_f" x="387.377" y="251.845" width="27.4029" height="91.1712" filterUnits="userSpaceOnUse" color-interpolation-filters="sRGB">
<feFlood flood-opacity="0" result="BackgroundImageFix"/>
<feBlend mode="normal" in="SourceGraphic" in2="BackgroundImageFix" result="shape"/>
<feGaussianBlur stdDeviation="0.000135555" result="effect1_foregroundBlur"/>
</filter>
<filter id="filter28_f" x="383.586" y="222.849" width="35.199" height="52.2034" filterUnits="userSpaceOnUse" color-interpolation-filters="sRGB">
<feFlood flood-opacity="0" result="BackgroundImageFix"/>
<feBlend mode="normal" in="SourceGraphic" in2="BackgroundImageFix" result="shape"/>
<feGaussianBlur stdDeviation="0.000135555" result="effect1_foregroundBlur"/>
</filter>
<filter id="filter29_f" x="389.433" y="235.734" width="20.3579" height="4.07783" filterUnits="userSpaceOnUse" color-interpolation-filters="sRGB">
<feFlood flood-opacity="0" result="BackgroundImageFix"/>
<feBlend mode="normal" in="SourceGraphic" in2="BackgroundImageFix" result="shape"/>
<feGaussianBlur stdDeviation="0.000135555" result="effect1_foregroundBlur"/>
</filter>
<filter id="filter30_f" x="402.752" y="259.189" width="12.5091" height="7.18108" filterUnits="userSpaceOnUse" color-interpolation-filters="sRGB">
<feFlood flood-opacity="0" result="BackgroundImageFix"/>
<feBlend mode="normal" in="SourceGraphic" in2="BackgroundImageFix" result="shape"/>
<feGaussianBlur stdDeviation="0.000135555" result="effect1_foregroundBlur"/>
</filter>
<filter id="filter31_f" x="396.133" y="241.82" width="11.4288" height="2.8616" filterUnits="userSpaceOnUse" color-interpolation-filters="sRGB">
<feFlood flood-opacity="0" result="BackgroundImageFix"/>
<feBlend mode="normal" in="SourceGraphic" in2="BackgroundImageFix" result="shape"/>
<feGaussianBlur stdDeviation="0.000135555" result="effect1_foregroundBlur"/>
</filter>
<filter id="filter32_f" x="346.99" y="286.692" width="57.7025" height="224.768" filterUnits="userSpaceOnUse" color-interpolation-filters="sRGB">
<feFlood flood-opacity="0" result="BackgroundImageFix"/>
<feBlend mode="normal" in="SourceGraphic" in2="BackgroundImageFix" result="shape"/>
<feGaussianBlur stdDeviation="0.00481085" result="effect1_foregroundBlur"/>
</filter>
<filter id="filter33_f" x="411.11" y="279.088" width="43.4804" height="129.593" filterUnits="userSpaceOnUse" color-interpolation-filters="sRGB">
<feFlood flood-opacity="0" result="BackgroundImageFix"/>
<feBlend mode="normal" in="SourceGraphic" in2="BackgroundImageFix" result="shape"/>
<feGaussianBlur stdDeviation="0.00481085" result="effect1_foregroundBlur"/>
</filter>
<filter id="filter34_f" x="368.363" y="358.027" width="39.2838" height="123.131" filterUnits="userSpaceOnUse" color-interpolation-filters="sRGB">
<feFlood flood-opacity="0" result="BackgroundImageFix"/>
<feBlend mode="normal" in="SourceGraphic" in2="BackgroundImageFix" result="shape"/>
<feGaussianBlur stdDeviation="0.00481085" result="effect1_foregroundBlur"/>
</filter>
<filter id="filter35_i" x="409.682" y="278.666" width="49.3406" height="199.835" filterUnits="userSpaceOnUse" color-interpolation-filters="sRGB">
<feFlood flood-opacity="0" result="BackgroundImageFix"/>
<feBlend mode="normal" in="SourceGraphic" in2="BackgroundImageFix" result="shape"/>
<feColorMatrix in="SourceAlpha" type="matrix" values="0 0 0 0 0 0 0 0 0 0 0 0 0 0 0 0 0 0 127 0" result="hardAlpha"/>
<feOffset/>
<feGaussianBlur stdDeviation="0.00481085"/>
<feComposite in2="hardAlpha" operator="arithmetic" k2="-1" k3="1"/>
<feColorMatrix type="matrix" values="0 0 0 0 0 0 0 0 0 0 0 0 0 0 0 0 0 0 1 0"/>
<feBlend mode="normal" in2="shape" result="effect1_innerShadow"/>
</filter>
<filter id="filter36_f" x="350.586" y="286.692" width="29.3836" height="59.8756" filterUnits="userSpaceOnUse" color-interpolation-filters="sRGB">
<feFlood flood-opacity="0" result="BackgroundImageFix"/>
<feBlend mode="normal" in="SourceGraphic" in2="BackgroundImageFix" result="shape"/>
<feGaussianBlur stdDeviation="0.00481085" result="effect1_foregroundBlur"/>
</filter>
<filter id="filter37_f" x="439.803" y="291.908" width="29.6972" height="196.876" filterUnits="userSpaceOnUse" color-interpolation-filters="sRGB">
<feFlood flood-opacity="0" result="BackgroundImageFix"/>
<feBlend mode="normal" in="SourceGraphic" in2="BackgroundImageFix" result="shape"/>
<feGaussianBlur stdDeviation="0.00481085" result="effect1_foregroundBlur"/>
</filter>
<filter id="filter38_f" x="378.116" y="332.018" width="26.5689" height="80.8603" filterUnits="userSpaceOnUse" color-interpolation-filters="sRGB">
<feFlood flood-opacity="0" result="BackgroundImageFix"/>
<feBlend mode="normal" in="SourceGraphic" in2="BackgroundImageFix" result="shape"/>
<feGaussianBlur stdDeviation="0.000769737" result="effect1_foregroundBlur"/>
</filter>
<filter id="filter39_f" x="400.332" y="340.684" width="18.5845" height="102.702" filterUnits="userSpaceOnUse" color-interpolation-filters="sRGB">
<feFlood flood-opacity="0" result="BackgroundImageFix"/>
<feBlend mode="normal" in="SourceGraphic" in2="BackgroundImageFix" result="shape"/>
<feGaussianBlur stdDeviation="0.00481085" result="effect1_foregroundBlur"/>
</filter>
<filter id="filter40_f" x="394.256" y="204.588" width="48.9956" height="144.434" filterUnits="userSpaceOnUse" color-interpolation-filters="sRGB">
<feFlood flood-opacity="0" result="BackgroundImageFix"/>
<feBlend mode="normal" in="SourceGraphic" in2="BackgroundImageFix" result="shape"/>
<feGaussianBlur stdDeviation="0.000135555" result="effect1_foregroundBlur"/>
</filter>
<filter id="filter41_f" x="370.199" y="202" width="39.6257" height="148.625" filterUnits="userSpaceOnUse" color-interpolation-filters="sRGB">
<feFlood flood-opacity="0" result="BackgroundImageFix"/>
<feBlend mode="normal" in="SourceGraphic" in2="BackgroundImageFix" result="shape"/>
<feGaussianBlur stdDeviation="0.000135555" result="effect1_foregroundBlur"/>
</filter>
<filter id="filter42_f" x="360.722" y="496.14" width="19.3245" height="29.6124" filterUnits="userSpaceOnUse" color-interpolation-filters="sRGB">
<feFlood flood-opacity="0" result="BackgroundImageFix"/>
<feBlend mode="normal" in="SourceGraphic" in2="BackgroundImageFix" result="shape"/>
<feGaussianBlur stdDeviation="0.00301126" result="effect1_foregroundBlur"/>
</filter>
<filter id="filter43_f" x="439.906" y="477.533" width="24.3626" height="26.7915" filterUnits="userSpaceOnUse" color-interpolation-filters="sRGB">
<feFlood flood-opacity="0" result="BackgroundImageFix"/>
<feBlend mode="normal" in="SourceGraphic" in2="BackgroundImageFix" result="shape"/>
<feGaussianBlur stdDeviation="0.000135658" result="effect1_foregroundBlur"/>
</filter>
<linearGradient id="paint0_linear" x1="331.285" y1="300.526" x2="454.924" y2="216.43" gradientUnits="userSpaceOnUse">
<stop stop-color="#FFCCAA"/>
<stop offset="1" stop-color="#FFCCAA" stop-opacity="0"/>
</linearGradient>
<linearGradient id="paint1_linear" x1="404.475" y1="243.927" x2="408.29" y2="246.347" gradientUnits="userSpaceOnUse">
<stop stop-color="#1A1A1A"/>
<stop offset="1" stop-color="#1A1A1A" stop-opacity="0"/>
</linearGradient>
<linearGradient id="paint2_linear" x1="435.848" y1="286.328" x2="399.896" y2="446.699" gradientUnits="userSpaceOnUse">
<stop stop-color="#F4D7D7"/>
<stop offset="1" stop-color="#D35F5F"/>
</linearGradient>
<linearGradient id="paint3_linear" x1="245.859" y1="413.576" x2="465.026" y2="479.463" gradientUnits="userSpaceOnUse">
<stop stop-color="#C83737"/>
<stop offset="1" stop-color="#C83737" stop-opacity="0"/>
</linearGradient>
<linearGradient id="paint4_linear" x1="368.682" y1="419.492" x2="407.322" y2="419.492" gradientUnits="userSpaceOnUse">
<stop stop-color="#F4D7D7"/>
<stop offset="1" stop-color="#F4D7D7" stop-opacity="0"/>
</linearGradient>
<linearGradient id="paint5_linear" x1="409.998" y1="378.543" x2="458.707" y2="378.543" gradientUnits="userSpaceOnUse">
<stop stop-color="#F4D7D7"/>
<stop offset="1" stop-color="#C73636" stop-opacity="0.372549"/>
</linearGradient>
<linearGradient id="paint6_linear" x1="386.196" y1="322.241" x2="345.319" y2="304.237" gradientUnits="userSpaceOnUse">
<stop stop-color="#F4D7D7"/>
<stop offset="1" stop-color="#C73636" stop-opacity="0.372549"/>
</linearGradient>
<linearGradient id="paint7_linear" x1="372.583" y1="388.134" x2="417.001" y2="370.628" gradientUnits="userSpaceOnUse">
<stop stop-color="#C83737"/>
<stop offset="1" stop-color="#C83737" stop-opacity="0"/>
</linearGradient>
<linearGradient id="paint8_linear" x1="405.674" y1="354.77" x2="473.434" y2="216.085" gradientUnits="userSpaceOnUse">
<stop stop-color="#F4D7D7"/>
<stop offset="1" stop-color="#F4D7D7" stop-opacity="0"/>
</linearGradient>
<linearGradient id="paint9_linear" x1="377.252" y1="273.056" x2="416.214" y2="206.75" gradientUnits="userSpaceOnUse">
<stop stop-color="#F4D7D7"/>
<stop offset="1" stop-color="#F4D7D7" stop-opacity="0"/>
</linearGradient>
<clipPath id="clip0">
<rect width="1440" height="1024" fill="white"/>
</clipPath>
</defs>
</svg>
